<?xml version="1.0" encoding="utf-8"?>
<!-- Generator: Adobe Illustrator 25.2.3, SVG Export Plug-In . SVG Version: 6.00 Build 0)  -->
<svg version="1.1" id="Layer_1" xmlns="http://www.w3.org/2000/svg" xmlns:xlink="http://www.w3.org/1999/xlink" x="0px" y="0px"
	 viewBox="0 0 443.9664 146.7661" enable-background="new 0 0 443.9664 146.7661" xml:space="preserve">
<g>

	<g>
		<path fill="#FFFFFF" d="M195.7596,40.2393c1.8135,1.0171,3.2354,2.4478,4.2681,4.29c1.0317,1.8428,1.5479,3.9878,1.5479,6.4351
			c0,2.4478-0.5161,4.5928-1.5479,6.4351c-1.0327,1.8428-2.4546,3.2725-4.2681,4.29c-1.8135,1.0171-3.8257,1.5259-6.0371,1.5259
			c-3.2729,0-5.7646-1.0317-7.4741-3.0962v2.7422h-6.5898V30.0449h6.8994v11.543c1.7393-1.916,4.1274-2.8745,7.1646-2.8745
			C191.934,38.7134,193.9462,39.2217,195.7596,40.2393z M192.8851,55.7627c1.1343-1.1938,1.7026-2.793,1.7026-4.7983
			c0-2.0049-0.5684-3.6045-1.7026-4.7988c-1.1357-1.1943-2.5874-1.791-4.3564-1.791s-3.2217,0.5967-4.3564,1.791
			c-1.1357,1.1943-1.7026,2.7939-1.7026,4.7988c0,2.0054,0.5669,3.6045,1.7026,4.7983c1.1348,1.1943,2.5874,1.7915,4.3564,1.7915
			S191.7494,56.957,192.8851,55.7627z"/>
		<path fill="#FFFFFF" d="M209.8676,61.645c-1.9902-1.0464-3.5454-2.499-4.666-4.3564s-1.6807-3.9653-1.6807-6.3242
			s0.5601-4.4673,1.6807-6.3247s2.6758-3.3096,4.666-4.3564c1.9902-1.0464,4.2383-1.5698,6.7446-1.5698
			c2.5059,0,4.7471,0.5234,6.7227,1.5698c1.9751,1.0469,3.5229,2.499,4.644,4.3564c1.1201,1.8574,1.6807,3.9658,1.6807,6.3247
			s-0.5605,4.4668-1.6807,6.3242c-1.1211,1.8574-2.6689,3.3101-4.644,4.3564c-1.9756,1.0469-4.2168,1.5703-6.7227,1.5703
			C214.1058,63.2153,211.8578,62.6919,209.8676,61.645z M220.9686,55.7627c1.1348-1.1938,1.7031-2.793,1.7031-4.7983
			c0-2.0049-0.5684-3.6045-1.7031-4.7988c-1.1353-1.1943-2.5869-1.791-4.3564-1.791c-1.769,0-3.2285,0.5967-4.3784,1.791
			s-1.7246,2.7939-1.7246,4.7988c0,2.0054,0.5747,3.6045,1.7246,4.7983c1.1499,1.1943,2.6094,1.7915,4.3784,1.7915
			C218.3817,57.5542,219.8334,56.957,220.9686,55.7627z"/>
		<path fill="#FFFFFF" d="M233.3744,30.0449h6.8994v32.8164h-6.8994V30.0449z"/>
		<path fill="#FFFFFF" d="M245.3597,61.9766c-0.8257-0.8247-1.2383-1.8574-1.2383-3.0957c0-1.2676,0.4126-2.292,1.2383-3.0737
			c0.8252-0.7808,1.8423-1.1719,3.0518-1.1719c1.2085,0,2.2256,0.3911,3.0513,1.1719c0.8252,0.7817,1.2388,1.8062,1.2388,3.0737
			c0,1.2383-0.4136,2.271-1.2388,3.0957c-0.8257,0.8262-1.8428,1.2388-3.0513,1.2388
			C247.202,63.2153,246.1849,62.8027,245.3597,61.9766z"/>
		<path fill="#FFFFFF" d="M260.8617,61.645c-2.02-1.0464-3.5977-2.499-4.7324-4.3564c-1.1357-1.8574-1.7031-3.9653-1.7031-6.3242
			s0.5674-4.4673,1.7031-6.3247c1.1348-1.8574,2.7124-3.3096,4.7324-4.3564c2.019-1.0464,4.2969-1.5698,6.833-1.5698
			c2.5059,0,4.6948,0.5234,6.5674,1.5698c1.8721,1.0469,3.2358,2.543,4.0913,4.4893l-5.3516,2.8745
			c-1.2383-2.1816-3.0225-3.2725-5.3516-3.2725c-1.7988,0-3.2881,0.5898-4.4668,1.769c-1.1797,1.1797-1.769,2.7861-1.769,4.8208
			c0,2.0342,0.5894,3.6416,1.769,4.8208c1.1787,1.1792,2.668,1.769,4.4668,1.769c2.3584,0,4.1421-1.0908,5.3516-3.2729
			l5.3516,2.9189c-0.8555,1.8872-2.2192,3.3613-4.0913,4.4229c-1.8726,1.0615-4.0615,1.5923-6.5674,1.5923
			C265.1586,63.2153,262.8807,62.6919,260.8617,61.645z"/>
		<path fill="#FFFFFF" d="M285.7172,61.645c-1.9902-1.0464-3.5454-2.499-4.666-4.3564s-1.6807-3.9653-1.6807-6.3242
			s0.5601-4.4673,1.6807-6.3247s2.6758-3.3096,4.666-4.3564c1.9902-1.0464,4.2383-1.5698,6.7446-1.5698
			c2.5059,0,4.7471,0.5234,6.7227,1.5698c1.9751,1.0469,3.5229,2.499,4.644,4.3564c1.1201,1.8574,1.6807,3.9658,1.6807,6.3247
			s-0.5605,4.4668-1.6807,6.3242c-1.1211,1.8574-2.6689,3.3101-4.644,4.3564c-1.9756,1.0469-4.2168,1.5703-6.7227,1.5703
			C289.9554,63.2153,287.7074,62.6919,285.7172,61.645z M296.8182,55.7627c1.1348-1.1938,1.7031-2.793,1.7031-4.7983
			c0-2.0049-0.5684-3.6045-1.7031-4.7988c-1.1353-1.1943-2.5869-1.791-4.3564-1.791c-1.769,0-3.2285,0.5967-4.3784,1.791
			s-1.7246,2.7939-1.7246,4.7988c0,2.0054,0.5747,3.6045,1.7246,4.7983c1.1499,1.1943,2.6094,1.7915,4.3784,1.7915
			C294.2313,57.5542,295.683,56.957,296.8182,55.7627z"/>
		<path fill="#FFFFFF" d="M346.7948,41.3447c1.7539,1.7544,2.6318,4.3862,2.6318,7.8945v13.6221h-6.8999V50.3008
			c0-1.8867-0.3911-3.2949-1.1719-4.2236c-0.7817-0.9287-1.895-1.3931-3.3389-1.3931c-1.6221,0-2.9048,0.5234-3.8481,1.5698
			c-0.9438,1.0469-1.415,2.6025-1.415,4.666v11.9414h-6.8994V50.3008c0-3.7441-1.5039-5.6167-4.5112-5.6167
			c-1.5923,0-2.8604,0.5234-3.8037,1.5698c-0.9438,1.0469-1.415,2.6025-1.415,4.666v11.9414h-6.8994V39.0669h6.5898v2.7422
			c0.8843-1.002,1.9678-1.769,3.2505-2.2998s2.6904-0.7959,4.2236-0.7959c1.6807,0,3.1992,0.3315,4.5557,0.9951
			c1.3555,0.6631,2.4468,1.6294,3.2725,2.897c0.9731-1.2388,2.2041-2.1963,3.6934-2.875c1.4883-0.6777,3.1177-1.0171,4.8867-1.0171
			C342.6742,38.7134,345.0404,39.5908,346.7948,41.3447z"/>
		<path fill="#FFFFFF" d="M185.8749,100.4004l-3.3169,3.2729v6.0591h-6.8994V76.916h6.8994v18.5752l10.0835-9.5532h8.2266
			l-9.9072,10.084l10.7915,13.7104h-8.3589L185.8749,100.4004z"/>
		<path fill="#FFFFFF" d="M207.5238,108.5161c-1.9902-1.0464-3.5454-2.499-4.666-4.3564s-1.6807-3.9653-1.6807-6.3242
			s0.5601-4.4673,1.6807-6.3247s2.6758-3.3096,4.666-4.3564c1.9902-1.0464,4.2383-1.5698,6.7446-1.5698
			c2.5059,0,4.7471,0.5234,6.7227,1.5698c1.9751,1.0469,3.5229,2.499,4.644,4.3564c1.1201,1.8574,1.6807,3.9658,1.6807,6.3247
			s-0.5605,4.4668-1.6807,6.3242c-1.1211,1.8574-2.6689,3.3101-4.644,4.3564c-1.9756,1.0469-4.2168,1.5703-6.7227,1.5703
			C211.7621,110.0864,209.514,109.563,207.5238,108.5161z M218.6249,102.6338c1.1348-1.1938,1.7031-2.793,1.7031-4.7983
			c0-2.0049-0.5684-3.6045-1.7031-4.7988c-1.1353-1.1943-2.5869-1.791-4.3564-1.791c-1.769,0-3.2285,0.5967-4.3784,1.791
			s-1.7246,2.7939-1.7246,4.7988c0,2.0054,0.5747,3.6045,1.7246,4.7983c1.1499,1.1943,2.6094,1.7915,4.3784,1.7915
			C216.038,104.4253,217.4896,103.8281,218.6249,102.6338z"/>
		<path fill="#FFFFFF" d="M251.1317,87.1104c1.8135,1.0171,3.2354,2.4478,4.2681,4.29c1.0317,1.8428,1.5479,3.9878,1.5479,6.4351
			c0,2.4478-0.5161,4.5928-1.5479,6.4351c-1.0327,1.8428-2.4546,3.2725-4.2681,4.29c-1.8135,1.0171-3.8257,1.5259-6.0371,1.5259
			c-3.0371,0-5.4253-0.958-7.1646-2.875v11.1011h-6.8994V85.938h6.5898v2.7422c1.7095-2.0635,4.2012-3.0957,7.4741-3.0957
			C247.306,85.5845,249.3182,86.0928,251.1317,87.1104z M248.2572,102.6338c1.1343-1.1938,1.7026-2.793,1.7026-4.7983
			c0-2.0049-0.5684-3.6045-1.7026-4.7988c-1.1357-1.1943-2.5874-1.791-4.3564-1.791s-3.2217,0.5967-4.3564,1.791
			c-1.1357,1.1943-1.7026,2.7939-1.7026,4.7988c0,2.0054,0.5669,3.6045,1.7026,4.7983c1.1348,1.1943,2.5874,1.7915,4.3564,1.7915
			S247.1215,103.8281,248.2572,102.6338z"/>
		<path fill="#FFFFFF" d="M280.7635,87.1104c1.8135,1.0171,3.2354,2.4478,4.2681,4.29c1.0317,1.8428,1.5479,3.9878,1.5479,6.4351
			c0,2.4478-0.5161,4.5928-1.5479,6.4351c-1.0327,1.8428-2.4546,3.2725-4.2681,4.29c-1.8135,1.0171-3.8257,1.5259-6.0371,1.5259
			c-3.0371,0-5.4253-0.958-7.1646-2.875v11.1011h-6.8994V85.938h6.5898v2.7422c1.7095-2.0635,4.2012-3.0957,7.4741-3.0957
			C276.9379,85.5845,278.9501,86.0928,280.7635,87.1104z M277.889,102.6338c1.1343-1.1938,1.7026-2.793,1.7026-4.7983
			c0-2.0049-0.5684-3.6045-1.7026-4.7988c-1.1357-1.1943-2.5874-1.791-4.3564-1.791s-3.2217,0.5967-4.3564,1.791
			c-1.1357,1.1943-1.7026,2.7939-1.7026,4.7988c0,2.0054,0.5669,3.6045,1.7026,4.7983c1.1348,1.1943,2.5874,1.7915,4.3564,1.7915
			S276.7533,103.8281,277.889,102.6338z"/>
		<path fill="#FFFFFF" d="M313.4691,99.7812h-18.0005c0.3242,1.4746,1.0903,2.6392,2.2998,3.4941
			c1.2085,0.8555,2.7124,1.2822,4.5112,1.2822c1.2383,0,2.3364-0.1836,3.2949-0.5527c0.958-0.3682,1.8501-0.9507,2.6758-1.7471
			l3.6709,3.9805c-2.2412,2.5654-5.5137,3.8481-9.8184,3.8481c-2.6836,0-5.0571-0.5234-7.1206-1.5703
			c-2.0645-1.0464-3.6562-2.499-4.7769-4.3564s-1.6807-3.9653-1.6807-6.3242c0-2.3291,0.5532-4.4297,1.6587-6.3027
			c1.106-1.8721,2.624-3.3315,4.5557-4.3784c1.9307-1.0464,4.0908-1.5698,6.479-1.5698c2.3291,0,4.4375,0.5015,6.3247,1.5034
			c1.8862,1.0029,3.3682,2.4404,4.4448,4.3125c1.0757,1.8726,1.6143,4.0464,1.6143,6.5234
			C313.6019,98.0122,313.5575,98.6313,313.4691,99.7812z M297.326,92.1299c-1.061,0.8848-1.71,2.0938-1.9458,3.627h11.7202
			c-0.2363-1.5039-0.8848-2.7051-1.9458-3.605c-1.0615-0.8989-2.3594-1.3486-3.8921-1.3486
			C299.6991,90.8032,298.3876,91.2456,297.326,92.1299z"/>
		<path fill="#FFFFFF" d="M317.3168,76.916h6.8994v32.8164h-6.8994V76.916z"/>
		<path fill="#FFFFFF" d="M330.098,81.5156c-0.7959-0.7368-1.1938-1.6514-1.1938-2.7422s0.3979-2.0049,1.1938-2.7422
			c0.7964-0.7368,1.8281-1.1055,3.0962-1.1055c1.2671,0,2.2998,0.3535,3.0957,1.061c0.7959,0.708,1.1943,1.5923,1.1943,2.6538
			c0,1.1499-0.3984,2.1006-1.1943,2.8525s-1.8286,1.1279-3.0957,1.1279C331.9261,82.6211,330.8944,82.2529,330.098,81.5156z
			 M329.7445,85.938h6.8994v23.7944h-6.8994V85.938z"/>
		<path fill="#FFFFFF" d="M363.7772,88.2378c1.813,1.769,2.7197,4.394,2.7197,7.8726v13.6221h-6.8994V97.1719
			c0-1.8867-0.4131-3.2949-1.2383-4.2236c-0.8257-0.9287-2.02-1.3931-3.5825-1.3931c-1.7397,0-3.1255,0.5381-4.1572,1.6143
			c-1.0327,1.0767-1.5479,2.6758-1.5479,4.7983v11.7646h-6.8994V85.938h6.5898v2.7866c0.9136-1.002,2.0488-1.7764,3.4053-2.3223
			c1.356-0.5449,2.8452-0.8179,4.4668-0.8179C359.5824,85.5845,361.9637,86.4688,363.7772,88.2378z"/>
		<path fill="#FFFFFF" d="M396.6595,85.938v19.814c0,4.3633-1.1353,7.6069-3.4053,9.73c-2.271,2.123-5.5879,3.1841-9.9512,3.1841
			c-2.2998,0-4.4824-0.2803-6.5459-0.8398c-2.064-0.5605-3.7744-1.3711-5.1304-2.4326l2.7422-4.9536
			c1.002,0.8252,2.27,1.4819,3.8037,1.9683c1.5327,0.4863,3.0659,0.7295,4.5996,0.7295c2.3882,0,4.1494-0.5381,5.2852-1.6143
			c1.1348-1.0767,1.7026-2.7046,1.7026-4.8867v-1.0176c-1.7988,1.9761-4.3052,2.9634-7.5186,2.9634
			c-2.1826,0-4.1797-0.479-5.9927-1.4375c-1.8135-0.9575-3.251-2.3066-4.3125-4.0469c-1.0615-1.7393-1.5923-3.7441-1.5923-6.0146
			c0-2.27,0.5308-4.2749,1.5923-6.0151c1.0615-1.7393,2.499-3.0884,4.3125-4.0469c1.813-0.9575,3.8101-1.437,5.9927-1.437
			c3.4497,0,6.0737,1.1353,7.8726,3.4053V85.938H396.6595z M388.1014,101.3071c1.1646-1.0762,1.7471-2.4839,1.7471-4.2236
			c0-1.7393-0.5825-3.147-1.7471-4.2236c-1.165-1.0762-2.6611-1.6143-4.4888-1.6143c-1.8286,0-3.3325,0.5381-4.5112,1.6143
			c-1.1797,1.0767-1.769,2.4844-1.769,4.2236c0,1.7397,0.5894,3.1475,1.769,4.2236c1.1787,1.0767,2.6826,1.6143,4.5112,1.6143
			C385.4403,102.9214,386.9364,102.3838,388.1014,101.3071z"/>
	</g>
	<g>
		<linearGradient id="SVGID_1_" gradientUnits="userSpaceOnUse" x1="14.1875" y1="72.0439" x2="135.2569" y2="72.0439">
			<stop  offset="0" style="stop-color:#02F8B2"/>
			<stop  offset="1" style="stop-color:#06CC8A"/>
		</linearGradient>
		<path fill="url(#SVGID_1_)" d="M116.6649,132.5786H32.7796c-10.2681,0-18.592-8.3239-18.592-18.592V30.1012
			c0-10.2681,8.3239-18.592,18.592-18.592h83.8853c10.2681,0,18.592,8.3239,18.592,18.592v83.8853
			C135.2569,124.2546,126.933,132.5786,116.6649,132.5786z"/>
		<path fill="#FFFFFF" d="M43.0791,105.6116V38.4761h7.1324l24.5677,61.4754l24.4538-61.4754h7.1325v67.1355h-4.5283V43.6833
			l-25.0205,61.9283h-4.1886l-25.02-61.9283v61.9283H43.0791z"/>
	</g>
</g>
</svg>
