<?xml version="1.0" standalone="no"?>
<!DOCTYPE svg PUBLIC "-//W3C//DTD SVG 20010904//EN"
 "http://www.w3.org/TR/2001/REC-SVG-20010904/DTD/svg10.dtd">
<svg version="1.0" xmlns="http://www.w3.org/2000/svg"
 width="1771.000000pt" height="967.000000pt" viewBox="0 0 1771.000000 967.000000"
 preserveAspectRatio="xMidYMid meet">

<g transform="translate(0.000000,967.000000) scale(0.100000,-0.100000)"
fill="#000000" stroke="none">
<path d="M0 9445 l0 -225 23 0 c18 0 28 -11 46 -47 12 -27 30 -59 38 -72 15
-24 15 -24 55 48 28 50 45 71 59 71 18 0 19 -8 19 -110 0 -91 -3 -110 -15
-110 -12 0 -15 16 -15 83 l0 82 -38 -68 c-23 -43 -42 -67 -52 -65 -8 2 -29 30
-47 63 l-32 60 -1 -77 c0 -71 -2 -78 -20 -78 -20 0 -20 -7 -20 -4500 l0 -4500
1100 0 1100 0 0 3025 0 3024 131 3 132 3 -129 71 -129 71 -3 66 c-3 62 0 72
48 167 28 56 49 104 46 107 -3 3 -24 -9 -48 -26 l-43 -32 -3 1596 -2 1595
-1100 0 -1100 0 0 -225z m350 -335 c0 -103 -1 -110 -20 -110 -19 0 -20 7 -20
110 0 103 1 110 20 110 19 0 20 -7 20 -110z m150 37 l55 -72 3 73 c3 64 5 72
22 72 19 0 20 -7 20 -110 0 -98 -2 -110 -17 -110 -10 1 -38 28 -63 61 -74 99
-76 100 -72 13 3 -69 2 -74 -17 -74 -20 0 -21 5 -21 110 0 98 2 110 18 110 9
-1 41 -33 72 -73z m310 58 c0 -10 -10 -15 -30 -15 l-30 0 0 -95 c0 -88 -1 -95
-20 -95 -19 0 -20 7 -20 95 l0 95 -35 0 c-24 0 -35 5 -35 15 0 12 16 15 85 15
69 0 85 -3 85 -15z m94 -37 l29 -51 24 47 c23 45 42 62 62 54 5 -1 -8 -32 -30
-68 -29 -48 -39 -76 -39 -107 0 -36 -3 -43 -20 -43 -17 0 -20 7 -20 45 0 35
-9 59 -40 110 -38 62 -39 65 -17 65 16 0 30 -13 51 -52z m-414 -394 c75 -22
162 -109 184 -184 34 -115 12 -206 -73 -291 -61 -61 -125 -89 -201 -89 -153 0
-290 137 -290 290 0 146 128 281 179 189 14 -25 13 -30 -19 -79 -65 -101 -44
-207 51 -258 110 -59 249 24 249 148 0 47 -34 111 -72 138 l-33 22 -5 -78 c-5
-87 -19 -112 -58 -112 -54 0 -62 21 -62 157 0 110 2 125 20 143 24 24 59 25
130 4z m465 -39 c0 -38 -2 -40 -32 -43 -33 -3 -33 -3 -33 43 0 46 0 46 33 43
30 -3 32 -5 32 -43z m73 3 c2 -13 -3 -18 -18 -18 -12 0 -19 -4 -15 -10 3 -5
13 -6 23 -3 13 5 14 3 6 -6 -27 -29 -65 6 -50 45 8 21 50 14 54 -8z m100 -15
c2 -19 -1 -33 -7 -33 -6 0 -11 14 -11 31 0 17 -4 28 -10 24 -5 -3 -10 -17 -10
-31 0 -36 -20 -29 -22 9 l-1 32 -4 -32 c-6 -44 -23 -42 -23 3 l0 35 43 -3 c39
-3 42 -5 45 -35z m67 2 c0 -25 -4 -30 -25 -30 -16 0 -26 6 -28 18 -6 30 6 49
30 45 18 -2 23 -9 23 -33z m-237 -137 c7 -7 12 -21 12 -33 0 -47 -62 -63 -81
-21 -22 47 33 90 69 54z m102 -33 c0 -38 -3 -45 -20 -45 -15 0 -20 7 -20 24 0
14 -4 28 -10 31 -6 4 -10 -7 -10 -24 0 -17 -4 -31 -10 -31 -5 0 -10 16 -10 36
0 35 1 36 30 32 20 -3 30 0 30 9 0 7 5 13 10 13 6 0 10 -20 10 -45z m30 -10
c0 -19 -4 -35 -10 -35 -5 0 -10 16 -10 35 0 19 5 35 10 35 6 0 10 -16 10 -35z
m68 23 c9 -9 12 -9 12 0 0 20 38 14 50 -8 9 -18 8 -20 -15 -20 -15 0 -24 -4
-20 -10 3 -5 12 -7 20 -3 8 3 15 0 15 -6 0 -15 -50 -14 -51 2 0 10 -2 10 -6 0
-8 -22 -23 -14 -23 11 0 14 -4 28 -10 31 -6 4 -10 -7 -10 -24 0 -17 -4 -31
-10 -31 -5 0 -10 16 -10 35 0 30 3 35 23 35 13 0 28 -5 35 -12z m-675 -1161
c18 -4 17 -5 -5 -6 -27 -1 -28 1 -26 47 l1 47 4 -42 c3 -33 8 -43 26 -46z
m111 74 c4 -5 -3 -7 -14 -4 -23 6 -26 13 -6 13 8 0 17 -4 20 -9z m99 2 c-7 -2
-21 -2 -30 0 -10 3 -4 5 12 5 17 0 24 -2 18 -5z m205 0 c-34 -5 -38 -32 -5
-34 l22 -2 -22 -4 c-32 -6 -29 -31 5 -36 25 -4 25 -4 -5 -6 -33 -1 -33 0 -33
44 0 44 0 45 33 44 30 -2 30 -2 5 -6z m100 0 c-34 -5 -38 -32 -5 -34 l22 -2
-22 -4 c-32 -6 -29 -31 5 -36 25 -4 25 -4 -5 -6 -33 -1 -33 0 -33 44 0 44 0
45 33 44 30 -2 30 -2 5 -6z m76 -9 c3 -8 2 -12 -4 -9 -6 3 -10 10 -10 16 0 14
7 11 14 -7z m46 -30 c0 -25 -4 -43 -8 -40 -7 4 -4 86 4 86 2 0 4 -21 4 -46z
m-427 -1 c-7 -2 -21 -2 -30 0 -10 3 -4 5 12 5 17 0 24 -2 18 -5z m-289 -12 c3
-4 -6 -6 -19 -3 -16 3 -25 0 -25 -9 0 -7 -3 -10 -6 -6 -3 3 -3 10 1 16 7 13
42 15 49 2z m384 -26 c-3 -3 -9 2 -12 12 -6 14 -5 15 5 6 7 -7 10 -15 7 -18z
m-193 5 c-3 -5 -14 -10 -23 -9 -14 0 -13 2 3 9 27 11 27 11 20 0z m98 -7 c-7
-2 -21 -2 -30 0 -10 3 -4 5 12 5 17 0 24 -2 18 -5z m-201 -401 c6 17 28 0 28
-22 0 -10 5 -22 10 -25 15 -9 12 -28 -3 -22 -8 3 -13 -4 -12 -22 0 -19 -6 -27
-22 -29 -16 -2 -23 2 -23 12 0 9 -4 16 -10 16 -5 0 -10 -7 -10 -15 0 -10 -10
-15 -26 -15 -23 0 -26 3 -22 29 3 21 1 28 -9 24 -25 -10 -13 12 24 44 28 23
42 29 55 22 11 -6 18 -5 20 3z m158 -22 c0 -15 7 -20 25 -20 18 0 25 5 25 20
0 11 5 20 10 20 6 0 10 -22 10 -50 0 -27 -4 -50 -10 -50 -5 0 -10 11 -10 25 0
20 -5 25 -25 25 -20 0 -25 -5 -25 -25 0 -14 -4 -25 -10 -25 -5 0 -10 23 -10
50 0 28 5 50 10 50 6 0 10 -9 10 -20z m145 -40 c0 -38 -24 -52 -50 -30 -31 25
-9 73 30 68 16 -2 20 -11 20 -38z m123 -2 c2 -22 -1 -38 -7 -38 -6 0 -11 16
-11 35 0 19 -4 35 -10 35 -5 0 -10 -16 -10 -35 0 -19 -4 -35 -10 -35 -5 0 -10
16 -10 35 0 19 -4 35 -10 35 -5 0 -10 -16 -10 -35 0 -19 -4 -35 -10 -35 -5 0
-10 18 -10 40 l0 40 48 -2 c47 -3 47 -3 50 -40z m80 20 c3 -14 -3 -18 -23 -18
-17 0 -25 -5 -22 -12 2 -7 14 -12 26 -11 13 2 20 -1 16 -7 -16 -25 -65 -2 -65
30 0 39 61 54 68 18z m-515 -389 c30 -13 57 -59 57 -94 0 -36 -59 -95 -94 -95
-80 0 -130 80 -92 149 25 45 81 62 129 40z m242 -59 c0 -20 -6 -26 -27 -28
-20 -2 -28 -9 -28 -23 0 -10 -4 -19 -10 -19 -5 0 -10 23 -10 51 l0 50 38 -3
c32 -3 37 -6 37 -28z m83 -12 c3 -14 -3 -18 -23 -18 -17 0 -25 -5 -22 -12 2
-7 15 -12 28 -10 17 2 21 0 12 -9 -6 -6 -21 -9 -34 -7 -25 3 -36 34 -25 64 8
21 60 14 64 -8z m118 10 c4 -6 -1 -8 -15 -3 -12 3 -21 2 -21 -4 0 -5 9 -13 21
-16 25 -8 22 -38 -5 -43 -10 -2 -23 2 -30 8 -8 9 -6 11 12 5 14 -4 22 -2 22 5
0 7 -9 14 -20 17 -11 3 -20 12 -20 20 0 29 -25 6 -28 -25 -5 -46 -22 -40 -22
7 l0 40 50 -1 c28 0 53 -4 56 -10z m79 -28 c0 -32 -2 -35 -30 -35 -24 0 -31 5
-33 23 -6 38 5 54 35 50 25 -3 28 -7 28 -38z m80 0 c0 -32 -2 -35 -30 -35 -24
0 -31 5 -33 23 -6 38 5 54 35 50 25 -3 28 -7 28 -38z m83 -2 c2 -22 -1 -38 -7
-38 -6 0 -11 16 -11 35 0 19 -4 35 -10 35 -5 0 -10 -16 -10 -35 0 -19 -4 -35
-10 -35 -5 0 -10 18 -10 41 0 38 1 40 28 37 23 -3 27 -8 30 -40z m68 31 c4 -8
0 -9 -15 -4 -29 9 -26 -7 3 -21 22 -10 25 -9 30 12 5 19 13 24 37 24 30 0 30
0 27 -52 -3 -47 -6 -53 -27 -56 -13 -2 -28 2 -35 8 -8 9 -4 10 17 5 17 -5 27
-3 27 4 0 6 -9 11 -19 11 -11 0 -22 6 -25 13 -5 10 -7 10 -12 0 -7 -16 -50
-17 -60 -2 -4 7 0 9 14 5 30 -10 36 9 7 22 -25 12 -31 23 -18 35 10 11 41 8
49 -4z m162 -11 c3 -14 -3 -18 -23 -18 -17 0 -25 -5 -22 -12 2 -7 14 -12 26
-11 13 2 20 -1 16 -7 -16 -25 -65 -2 -65 30 0 39 61 54 68 18z m80 -30 c-3
-47 -6 -53 -27 -56 -13 -2 -28 2 -35 8 -8 9 -4 10 17 5 17 -5 27 -3 27 4 0 6
-9 11 -19 11 -22 0 -35 30 -26 60 4 14 15 20 36 20 30 0 30 0 27 -52z m80 30
c3 -14 -3 -18 -23 -18 -17 0 -25 -5 -22 -12 2 -7 14 -12 26 -11 13 2 20 -1 16
-7 -16 -25 -65 -2 -65 30 0 39 61 54 68 18z m39 -5 l10 -28 6 28 c4 15 12 27
18 27 6 0 8 -7 5 -16 -3 -9 -9 -27 -12 -40 -3 -13 -12 -24 -19 -24 -7 0 -16
11 -19 24 -3 13 -9 31 -12 40 -3 9 -2 16 4 16 6 0 14 -12 19 -27z m111 15 c20
-20 14 -28 -19 -28 -20 0 -29 -4 -26 -12 2 -7 14 -12 26 -11 13 2 20 -1 16 -7
-8 -14 -38 -13 -53 2 -24 24 -7 68 28 68 9 0 21 -5 28 -12z m80 -30 c2 -22 -1
-38 -7 -38 -6 0 -11 16 -11 35 0 19 -4 35 -10 35 -5 0 -10 -16 -10 -35 0 -19
-4 -35 -10 -35 -5 0 -10 18 -10 41 0 38 1 40 28 37 23 -3 27 -8 30 -40z m72
31 c0 -6 -9 -8 -20 -4 -11 3 -20 2 -20 -3 0 -6 12 -13 26 -16 17 -5 24 -12 22
-24 -4 -20 -46 -29 -62 -12 -8 9 -4 10 17 5 34 -9 36 8 2 23 -25 12 -31 23
-18 35 10 11 53 8 53 -4z m-1398 -391 c3 -7 15 -13 29 -13 19 0 24 -5 24 -24
0 -14 6 -26 13 -29 6 -2 12 -12 12 -22 0 -10 -6 -20 -12 -22 -7 -3 -13 -15
-13 -29 0 -19 -5 -24 -24 -24 -14 0 -26 -6 -29 -13 -2 -6 -12 -12 -22 -12 -10
0 -20 6 -22 12 -3 7 -15 13 -29 13 -19 0 -24 5 -24 24 0 14 -6 26 -13 29 -6 2
-12 12 -12 22 0 10 6 20 12 22 7 3 13 15 13 29 0 19 5 24 24 24 14 0 26 6 29
13 2 6 12 12 22 12 10 0 20 -6 22 -12z m208 -88 c0 -27 -4 -50 -10 -50 -5 0
-10 23 -10 50 0 28 5 50 10 50 6 0 10 -22 10 -50z m191 43 c5 -55 2 -92 -6
-90 -11 4 -23 65 -17 85 4 13 22 17 23 5z m119 -43 c0 -27 -4 -50 -10 -50 -5
0 -10 23 -10 50 0 28 5 50 10 50 6 0 10 -22 10 -50z m30 0 c0 -27 -4 -50 -10
-50 -5 0 -10 23 -10 50 0 28 5 50 10 50 6 0 10 -22 10 -50z m-262 -12 c2 -22
-1 -38 -7 -38 -6 0 -11 16 -11 35 0 19 -4 35 -10 35 -5 0 -10 -16 -10 -35 0
-19 -4 -35 -10 -35 -5 0 -10 18 -10 41 0 38 1 40 28 37 23 -3 27 -8 30 -40z
m72 31 c0 -6 -9 -8 -20 -4 -11 3 -20 2 -20 -3 0 -6 12 -13 26 -16 17 -5 24
-12 22 -24 -4 -20 -46 -29 -62 -12 -8 9 -4 10 17 5 34 -9 36 8 2 23 -25 12
-31 23 -18 35 10 11 53 8 53 -4z m120 7 c0 -2 3 -11 6 -20 5 -12 0 -16 -20
-16 -17 0 -26 -5 -26 -16 0 -13 6 -15 28 -9 20 5 24 4 16 -5 -19 -20 -59 -8
-62 18 -5 36 5 52 33 52 14 0 25 -2 25 -4z m100 -36 c0 -22 -4 -40 -10 -40 -5
0 -10 18 -10 40 0 22 5 40 10 40 6 0 10 -18 10 -40z m78 -2 c2 -22 -1 -38 -7
-38 -6 0 -11 16 -11 35 0 19 -4 35 -10 35 -5 0 -10 -16 -10 -35 0 -19 -4 -35
-10 -35 -5 0 -10 18 -10 41 0 38 1 40 28 37 23 -3 27 -8 30 -40z m80 -10 c-3
-47 -6 -53 -27 -56 -13 -2 -28 2 -35 8 -8 9 -4 10 17 5 17 -5 27 -3 27 4 0 6
-9 11 -19 11 -22 0 -35 30 -26 60 4 14 15 20 36 20 30 0 30 0 27 -52z m80 30
c3 -14 -3 -18 -23 -18 -17 0 -25 -5 -22 -12 2 -7 14 -12 26 -11 13 2 20 -1 16
-7 -16 -25 -65 -2 -65 30 0 39 61 54 68 18z m80 -20 c2 -22 -1 -38 -7 -38 -6
0 -11 16 -11 35 0 19 -4 35 -10 35 -5 0 -10 -16 -10 -35 0 -19 -4 -35 -10 -35
-5 0 -10 18 -10 41 0 38 1 40 28 37 23 -3 27 -8 30 -40z m-928 -393 l0 -45
-45 0 -45 0 0 45 0 45 45 0 45 0 0 -45z m110 0 l0 -45 -45 0 -45 0 0 45 0 45
45 0 45 0 0 -45z m141 -25 c6 -16 14 -30 18 -30 4 0 12 14 18 30 17 46 33 37
33 -20 0 -51 -19 -72 -21 -22 l-1 27 -10 -27 c-5 -16 -13 -28 -18 -28 -5 0
-13 12 -18 28 l-10 27 -1 -27 c-2 -50 -21 -29 -21 22 0 56 15 66 31 20z m229
-20 c0 -46 -2 -50 -23 -50 -13 0 -28 5 -34 11 -8 8 -17 7 -32 -3 -27 -17 -56
0 -56 32 0 31 29 49 54 33 15 -9 25 -9 45 0 14 7 26 15 26 20 0 4 5 7 10 7 6
0 10 -22 10 -50z m120 0 c0 -27 -4 -50 -10 -50 -5 0 -10 23 -10 50 0 28 5 50
10 50 6 0 10 -22 10 -50z m-80 -5 c0 -19 5 -35 10 -35 6 0 10 16 10 35 0 19 5
35 10 35 6 0 10 -18 10 -41 0 -38 -1 -40 -27 -37 -24 3 -28 8 -31 41 -2 21 1
37 7 37 6 0 11 -16 11 -35z m150 31 c0 -2 3 -11 6 -20 5 -12 0 -16 -20 -16
-17 0 -26 -5 -26 -16 0 -13 6 -15 28 -9 20 5 24 4 16 -5 -19 -20 -59 -8 -62
18 -5 36 5 52 33 52 14 0 25 -2 25 -4z m76 -7 c4 -8 0 -9 -15 -4 -12 3 -21 2
-21 -4 0 -5 9 -13 21 -16 29 -10 20 -39 -14 -43 -15 -2 -27 2 -27 8 0 7 8 9
20 5 11 -3 20 -2 20 4 0 5 -9 13 -20 16 -20 6 -26 25 -13 38 10 11 41 8 49 -4z
m-746 -84 l0 -45 -45 0 -45 0 0 45 0 45 45 0 45 0 0 -45z m110 0 l0 -45 -45 0
-45 0 0 45 0 45 45 0 45 0 0 -45z m-157 -442 c-28 -5 -31 -33 -4 -33 11 0 22
-4 25 -9 3 -4 -6 -6 -19 -3 -19 3 -25 0 -25 -13 0 -13 6 -16 25 -13 13 3 22 1
19 -3 -3 -5 -16 -9 -30 -9 -22 0 -24 4 -24 45 0 43 1 45 28 44 23 -2 24 -2 5
-6z m105 0 c-34 -5 -38 -32 -5 -34 l22 -2 -22 -4 c-32 -6 -29 -31 5 -36 25 -4
25 -4 -5 -6 -33 -1 -33 0 -33 44 0 44 0 45 33 44 30 -2 30 -2 5 -6z m121 -40
c-1 -27 -4 -38 -6 -25 -3 16 -12 22 -31 23 l-27 2 28 4 c19 3 27 10 27 24 0
10 2 19 5 19 3 0 4 -21 4 -47z m79 40 c-34 -5 -38 -32 -5 -34 l22 -2 -22 -4
c-32 -6 -29 -31 5 -36 25 -4 25 -4 -5 -6 -33 -1 -33 0 -33 44 0 44 0 45 33 44
30 -2 30 -2 5 -6z m100 0 c-34 -5 -38 -32 -5 -34 l22 -2 -22 -4 c-32 -6 -29
-31 5 -36 25 -4 25 -4 -5 -6 -33 -1 -33 0 -33 44 0 44 0 45 33 44 30 -2 30 -2
5 -6z m116 -2 c3 -4 -6 -6 -19 -3 -19 3 -25 0 -25 -13 0 -13 6 -16 24 -13 16
3 23 1 19 -7 -2 -7 -13 -11 -23 -8 -13 4 -20 -2 -23 -19 -2 -12 -5 -2 -6 25
-1 44 1 47 23 47 14 0 27 -4 30 -9z m-444 -486 c6 -8 9 -19 5 -25 -3 -5 -1
-10 4 -10 6 0 11 -7 11 -15 0 -8 -4 -15 -10 -15 -5 0 -10 -7 -10 -15 0 -8 -11
-17 -25 -21 -14 -3 -25 -11 -25 -18 -1 -6 -9 -1 -19 11 -10 12 -21 19 -25 16
-3 -4 -6 1 -6 10 0 10 -4 17 -10 17 -16 0 -12 42 7 62 20 22 85 24 103 3z
m228 -29 c4 -28 4 -28 18 -7 17 23 44 27 62 9 20 -20 14 -28 -19 -28 -20 0
-29 -4 -26 -12 2 -7 14 -12 26 -11 13 2 20 -1 16 -7 -9 -15 -41 -12 -56 6 -11
14 -13 14 -21 0 -6 -10 -23 -16 -43 -16 l-35 0 0 51 0 50 38 -3 c32 -3 37 -6
40 -32z m302 -16 c0 -27 -4 -50 -10 -50 -5 0 -10 23 -10 50 0 28 5 50 10 50 6
0 10 -22 10 -50z m-182 3 l10 -28 7 28 c4 15 12 27 17 27 6 0 7 -7 4 -16 -3
-9 -9 -27 -12 -40 -8 -31 -30 -31 -38 0 -3 13 -9 31 -12 40 -3 9 -2 16 4 16 6
0 15 -12 20 -27z m112 23 c0 -2 3 -11 6 -20 5 -12 0 -16 -20 -16 -17 0 -26 -5
-26 -16 0 -13 6 -15 28 -9 20 5 24 4 16 -5 -19 -20 -59 -8 -62 18 -5 36 5 52
33 52 14 0 25 -2 25 -4z m40 -36 c0 -22 -4 -40 -10 -40 -5 0 -10 18 -10 40 0
22 5 40 10 40 6 0 10 -18 10 -40z m71 28 c0 -10 2 -10 6 0 2 6 18 12 34 12 30
0 30 0 27 -52 -3 -47 -6 -53 -27 -56 -13 -2 -28 2 -35 8 -8 9 -4 10 17 5 17
-5 27 -3 27 4 0 6 -9 11 -20 11 -11 0 -20 6 -21 13 0 10 -2 10 -6 0 -10 -27
-23 -11 -23 27 0 22 5 40 10 40 6 0 10 -6 11 -12z m147 -10 c3 -14 -3 -18 -23
-18 -17 0 -25 -5 -22 -12 2 -7 14 -12 26 -11 13 2 20 -1 16 -7 -16 -25 -65 -2
-65 30 0 39 61 54 68 18z m80 -20 c2 -22 -1 -38 -7 -38 -6 0 -11 16 -11 35 0
19 -4 35 -10 35 -5 0 -10 -16 -10 -35 0 -19 -4 -35 -10 -35 -5 0 -10 18 -10
41 0 38 1 40 28 37 23 -3 27 -8 30 -40z m-870 -529 l27 -2 -27 -4 c-18 -3 -28
-12 -31 -26 -2 -12 -4 1 -4 28 0 28 2 40 4 28 3 -17 12 -23 31 -24z m129 -11
c-2 -13 -4 -5 -4 17 -1 22 1 32 4 23 2 -10 2 -28 0 -40z m76 -31 c18 -4 17 -5
-5 -6 -27 -1 -28 1 -26 47 l1 47 4 -42 c3 -33 8 -43 26 -46z m100 76 c-7 -2
-21 -2 -30 0 -10 3 -4 5 12 5 17 0 24 -2 18 -5z m121 -9 c3 -8 2 -12 -4 -9 -6
3 -10 10 -10 16 0 14 7 11 14 -7z m46 -30 c0 -25 -4 -43 -8 -40 -7 4 -4 86 4
86 2 0 4 -21 4 -46z m94 37 c4 -5 -3 -7 -14 -4 -23 6 -26 13 -6 13 8 0 17 -4
20 -9z m110 0 c3 -4 -6 -6 -19 -3 -23 4 -25 1 -25 -33 0 -34 2 -37 25 -33 13
3 22 1 19 -3 -3 -5 -16 -9 -30 -9 -22 0 -24 4 -24 45 0 41 2 45 24 45 14 0 27
-4 30 -9z m160 0 c4 -5 -3 -7 -14 -4 -23 6 -26 13 -6 13 8 0 17 -4 20 -9z
m-257 -43 c-3 -8 -6 -5 -6 6 -1 11 2 17 5 13 3 -3 4 -12 1 -19z m-274 5 c-7
-2 -21 -2 -30 0 -10 3 -4 5 12 5 17 0 24 -2 18 -5z m-202 -41 c-7 -2 -18 1
-23 6 -8 8 -4 9 13 5 13 -4 18 -8 10 -11z m464 8 c-3 -5 -14 -10 -23 -9 -14 0
-13 2 3 9 27 11 27 11 20 0z m270 0 c-3 -5 -14 -10 -23 -9 -14 0 -13 2 3 9 27
11 27 11 20 0z m-725 -420 c29 -29 26 -74 -6 -99 -35 -27 -59 -26 -89 4 -46
45 -19 115 45 115 17 0 39 -9 50 -20z m170 -40 c0 -27 -4 -50 -10 -50 -5 0
-10 23 -10 50 0 28 5 50 10 50 6 0 10 -22 10 -50z m130 40 c-17 -11 -19 -10
45 -13 27 -2 30 -5 30 -37 0 -32 -2 -35 -30 -35 -27 0 -30 4 -33 33 -4 44 -22
41 -24 -5 l-1 -38 -4 38 c-5 47 -23 49 -23 2 0 -44 -18 -46 -22 -2 -2 17 -7
32 -13 32 -5 0 -11 -15 -13 -32 -5 -47 -22 -41 -22 7 l0 41 42 -3 c26 -1 43 3
46 10 2 7 11 12 20 12 15 0 15 -2 2 -10z m-320 -2909 c13 -26 13 -31 -4 -31
-8 0 -16 7 -20 15 -9 24 -26 17 -26 -9 0 -21 5 -25 38 -28 34 -3 37 -6 37 -33
0 -30 0 -30 -62 -33 l-63 -3 0 36 c0 19 5 35 10 35 6 0 10 13 10 28 0 36 6 42
41 42 18 0 32 -7 39 -19z m260 -36 c0 -38 3 -45 20 -45 17 0 20 7 20 45 0 25
5 45 11 45 6 0 9 -19 7 -47 -3 -48 -3 -48 -38 -48 -35 0 -35 0 -38 48 -2 28 1
47 7 47 6 0 11 -20 11 -45z m131 38 c0 -5 1 -27 2 -51 2 -50 -15 -51 -24 -1
l-6 34 -2 -37 c-1 -51 -21 -49 -21 2 0 29 4 40 15 40 8 0 15 5 15 10 0 11 20
14 21 3z m39 -43 c0 -27 -4 -50 -10 -50 -5 0 -10 23 -10 50 0 28 5 50 10 50 6
0 10 -22 10 -50z m75 -10 c0 -32 -2 -35 -30 -35 -24 0 -31 5 -33 23 -6 38 5
54 35 50 25 -3 28 -7 28 -38z m85 -3 c0 -24 -5 -48 -12 -55 -15 -15 -45 -15
-54 0 -5 8 -2 9 10 5 10 -4 23 -4 29 0 7 4 2 9 -13 13 -16 4 -26 14 -28 29 -6
36 5 51 38 51 29 0 30 -2 30 -43z m80 0 c0 -24 -5 -48 -12 -55 -15 -15 -45
-15 -54 0 -5 8 -2 9 10 5 10 -4 23 -4 29 0 7 4 2 9 -13 13 -16 4 -26 14 -28
29 -6 36 5 51 38 51 29 0 30 -2 30 -43z m78 21 c3 -14 -3 -18 -23 -18 -17 0
-25 -5 -22 -12 2 -7 15 -12 28 -10 17 2 21 0 12 -9 -6 -6 -21 -9 -34 -7 -25 3
-36 34 -25 64 8 21 60 14 64 -8z m80 -20 c2 -21 -1 -38 -7 -38 -5 0 -11 15
-13 33 -2 17 -7 32 -13 32 -5 0 -11 -15 -13 -32 -5 -47 -22 -41 -22 8 0 39 1
40 33 37 29 -3 32 -6 35 -40z"/>
<path d="M910 8735 c0 -25 4 -35 13 -32 6 2 12 16 12 32 0 16 -6 30 -12 33 -9
2 -13 -8 -13 -33z"/>
<path d="M995 8740 c-3 -5 -1 -10 4 -10 6 0 11 5 11 10 0 6 -2 10 -4 10 -3 0
-8 -4 -11 -10z"/>
<path d="M1160 8725 c0 -15 4 -24 10 -20 6 3 10 12 10 20 0 8 -4 17 -10 20 -6
4 -10 -5 -10 -20z"/>
<path d="M910 8574 c-10 -11 -11 -20 -3 -32 17 -27 38 -20 38 12 0 34 -16 44
-35 20z"/>
<path d="M1185 8560 c-3 -5 -1 -10 4 -10 6 0 11 5 11 10 0 6 -2 10 -4 10 -3 0
-8 -4 -11 -10z"/>
<path d="M450 6976 c0 -2 7 -7 16 -10 8 -3 12 -2 9 4 -6 10 -25 14 -25 6z"/>
<path d="M754 6955 c-7 -18 2 -45 15 -45 5 0 11 7 15 15 7 18 -2 45 -15 45 -5
0 -12 -7 -15 -15z"/>
<path d="M955 6960 c-3 -5 3 -10 15 -10 12 0 18 5 15 10 -3 6 -10 10 -15 10
-5 0 -12 -4 -15 -10z"/>
<path d="M421 6521 c-10 -6 -12 -20 -8 -45 5 -29 2 -36 -14 -41 -27 -9 -23
-21 11 -34 21 -7 39 -7 60 0 34 13 38 25 11 34 -16 5 -19 12 -14 41 5 33 -5
54 -27 54 -3 0 -11 -4 -19 -9z"/>
<path d="M670 6510 c0 -13 7 -20 20 -20 13 0 20 7 20 20 0 13 -7 20 -20 20
-13 0 -20 -7 -20 -20z"/>
<path d="M760 6500 c0 -5 7 -10 15 -10 8 0 15 5 15 10 0 6 -7 10 -15 10 -8 0
-15 -4 -15 -10z"/>
<path d="M964 6496 c-8 -21 3 -49 16 -41 5 3 10 15 10 25 0 25 -18 36 -26 16z"/>
<path d="M1044 6496 c-8 -21 3 -49 16 -41 5 3 10 15 10 25 0 25 -18 36 -26 16z"/>
<path d="M1274 6496 c-8 -21 3 -49 16 -41 5 3 10 15 10 25 0 25 -18 36 -26 16z"/>
<path d="M1355 6500 c-3 -5 3 -10 15 -10 12 0 18 5 15 10 -3 6 -10 10 -15 10
-5 0 -12 -4 -15 -10z"/>
<path d="M1434 6496 c-8 -21 3 -49 16 -41 5 3 10 15 10 25 0 25 -18 36 -26 16z"/>
<path d="M1515 6500 c-3 -5 3 -10 15 -10 12 0 18 5 15 10 -3 6 -10 10 -15 10
-5 0 -12 -4 -15 -10z"/>
<path d="M1665 6500 c-3 -5 3 -10 15 -10 12 0 18 5 15 10 -3 6 -10 10 -15 10
-5 0 -12 -4 -15 -10z"/>
<path d="M430 6106 c0 -18 -25 -27 -38 -14 -6 6 -12 6 -16 0 -3 -6 -2 -13 3
-17 14 -8 2 -35 -15 -35 -8 0 -14 -4 -14 -10 0 -5 6 -10 14 -10 18 0 27 -25
14 -38 -6 -6 -6 -12 0 -16 6 -3 13 -2 17 3 8 14 35 2 35 -15 0 -8 5 -14 10
-14 6 0 10 6 10 14 0 18 25 27 38 14 6 -6 12 -6 16 0 3 6 2 13 -3 17 -14 8 -2
35 15 35 8 0 14 5 14 10 0 6 -6 10 -14 10 -18 0 -27 25 -14 38 6 6 6 12 0 16
-6 3 -13 2 -17 -3 -8 -14 -35 -2 -35 15 0 8 -4 14 -10 14 -5 0 -10 -6 -10 -14z
m34 -52 c23 -22 20 -43 -9 -56 -19 -8 -28 -8 -40 2 -20 17 -19 47 3 59 23 14
28 14 46 -5z"/>
<path d="M420 6030 c0 -13 7 -20 20 -20 13 0 20 7 20 20 0 13 -7 20 -20 20
-13 0 -20 -7 -20 -20z"/>
<path d="M900 6040 c0 -5 7 -10 16 -10 8 0 12 5 9 10 -3 6 -10 10 -16 10 -5 0
-9 -4 -9 -10z"/>
<path d="M1154 6036 c-8 -21 3 -49 16 -41 5 3 10 15 10 25 0 25 -18 36 -26 16z"/>
<path d="M1235 6040 c-3 -5 3 -10 15 -10 12 0 18 5 15 10 -3 6 -10 10 -15 10
-5 0 -12 -4 -15 -10z"/>
<path d="M784 5586 c-8 -22 3 -49 19 -43 6 2 12 14 12 27 0 27 -22 39 -31 16z"/>
<path d="M864 5585 c-8 -19 2 -45 16 -45 5 0 10 14 10 30 0 31 -16 41 -26 15z"/>
<path d="M1060 5590 c0 -5 7 -10 16 -10 8 0 12 5 9 10 -3 6 -10 10 -16 10 -5
0 -9 -4 -9 -10z"/>
<path d="M383 4582 c-8 -5 -9 -13 -3 -22 8 -13 10 -12 10 2 0 9 8 19 18 21 12
3 13 5 2 6 -8 0 -20 -3 -27 -7z"/>
<path d="M630 4565 c0 -8 9 -15 20 -15 11 0 20 7 20 15 0 8 -9 15 -20 15 -11
0 -20 -7 -20 -15z"/>
<path d="M725 4550 c-3 -5 3 -10 15 -10 12 0 18 5 15 10 -3 6 -10 10 -15 10
-5 0 -12 -4 -15 -10z"/>
<path d="M630 4520 c0 -16 5 -21 23 -18 12 2 22 10 22 18 0 8 -10 16 -22 18
-18 3 -23 -2 -23 -18z"/>
<path d="M880 4550 c0 -5 7 -10 16 -10 8 0 12 5 9 10 -3 6 -10 10 -16 10 -5 0
-9 -4 -9 -10z"/>
<path d="M1054 4546 c-8 -21 3 -49 16 -41 5 3 10 15 10 25 0 25 -18 36 -26 16z"/>
<path d="M1135 4550 c-3 -5 3 -10 15 -10 12 0 18 5 15 10 -3 6 -10 10 -15 10
-5 0 -12 -4 -15 -10z"/>
<path d="M440 3520 c0 -5 5 -10 10 -10 6 0 10 5 10 10 0 6 -4 10 -10 10 -5 0
-10 -4 -10 -10z"/>
<path d="M444 3480 c0 -11 4 -20 8 -20 4 0 8 9 8 20 0 11 -4 20 -8 20 -4 0 -8
-9 -8 -20z"/>
<path d="M834 3506 c-8 -21 3 -49 16 -41 5 3 10 15 10 25 0 25 -18 36 -26 16z"/>
<path d="M430 551 c0 -6 5 -13 10 -16 6 -3 10 1 10 9 0 9 -4 16 -10 16 -5 0
-10 -4 -10 -9z"/>
<path d="M944 596 c-8 -21 3 -49 16 -41 5 3 10 15 10 25 0 25 -18 36 -26 16z"/>
<path d="M1020 580 c0 -21 4 -30 13 -27 6 2 12 14 12 27 0 13 -6 25 -12 28 -9
2 -13 -7 -13 -28z"/>
<path d="M1100 580 c0 -21 4 -30 13 -27 6 2 12 14 12 27 0 13 -6 25 -12 28 -9
2 -13 -7 -13 -28z"/>
<path d="M1180 600 c0 -5 7 -10 15 -10 8 0 15 5 15 10 0 6 -7 10 -15 10 -8 0
-15 -4 -15 -10z"/>
<path d="M3120 6415 l0 -2395 2225 0 2225 0 0 2395 0 2395 -2225 0 -2225 0 0
-2395z m4350 0 l0 -2295 -2125 0 -2125 0 0 2295 0 2295 2125 0 2125 0 0 -2295z"/>
<path d="M3300 8611 c0 -61 0 -61 30 -61 19 0 33 7 40 19 15 29 2 51 -31 51
-22 0 -29 5 -29 20 0 24 46 29 53 5 4 -11 4 -10 3 2 -1 13 -11 19 -34 21 l-32
3 0 -60z m60 -26 c0 -20 -5 -25 -25 -25 -20 0 -25 5 -25 25 0 20 5 25 25 25
20 0 25 -5 25 -25z"/>
<path d="M3493 8610 c0 -36 2 -50 4 -32 2 17 2 47 0 65 -2 17 -4 3 -4 -33z"/>
<path d="M3573 8610 c0 -36 2 -55 4 -42 2 12 7 22 10 22 2 0 14 -10 24 -22
l20 -23 -15 31 c-13 28 -13 32 2 47 9 10 11 17 5 17 -6 0 -17 -7 -24 -17 -13
-15 -15 -13 -20 18 -5 24 -6 16 -6 -31z"/>
<path d="M4013 8610 c0 -36 2 -50 4 -32 2 17 2 47 0 65 -2 17 -4 3 -4 -33z"/>
<path d="M3413 8633 c-7 -2 -13 -20 -13 -38 0 -25 5 -35 20 -40 26 -8 50 11
50 39 0 36 -25 53 -57 39z m42 -38 c0 -23 -4 -30 -20 -30 -21 0 -31 25 -21 51
11 28 41 12 41 -21z"/>
<path d="M3649 8619 c-15 -29 3 -69 31 -69 28 0 46 40 31 69 -7 11 -20 21 -31
21 -11 0 -24 -10 -31 -21z m56 -8 c7 -24 -3 -51 -21 -51 -20 0 -34 31 -23 52
13 23 36 23 44 -1z"/>
<path d="M3741 8575 c1 -33 4 -50 6 -39 3 16 9 20 23 17 14 -4 23 2 31 20 16
34 -3 67 -36 65 -24 -2 -25 -5 -24 -63z m52 41 c9 -24 -4 -57 -22 -54 -29 6
-27 68 3 68 7 0 16 -6 19 -14z"/>
<path d="M3831 8576 c1 -34 4 -52 7 -41 4 11 16 20 27 20 17 0 20 7 20 40 0
37 -2 40 -27 41 -28 1 -28 0 -27 -60z m44 18 c0 -19 -5 -29 -15 -29 -16 0 -25
28 -16 51 10 25 31 10 31 -22z"/>
<path d="M3918 8615 c-8 -19 -9 -31 -1 -43 12 -20 55 -23 59 -4 1 7 0 8 -3 2
-7 -15 -40 -12 -47 5 -4 11 2 15 25 15 26 0 30 3 27 23 -5 34 -45 35 -60 2z
m50 -2 c2 -8 -6 -13 -22 -13 -19 0 -24 4 -19 15 6 18 34 16 41 -2z"/>
<path d="M4043 8595 c0 -27 2 -38 4 -22 2 15 2 37 0 50 -2 12 -4 0 -4 -28z"/>
<path d="M4081 8591 l2 -46 6 40 c4 26 11 40 21 40 10 0 17 -14 21 -40 l7 -40
-2 45 c-1 42 -3 45 -28 46 -27 1 -28 -1 -27 -45z"/>
<path d="M4172 8628 c-28 -28 -1 -88 34 -74 10 4 14 2 11 -6 -2 -7 -16 -12
-31 -11 -14 1 -24 -2 -21 -8 9 -13 39 -11 53 3 7 7 12 33 12 58 0 41 -3 46
-23 48 -13 1 -29 -4 -35 -10z m43 -33 c0 -23 -4 -30 -20 -30 -21 0 -31 25 -21
51 11 28 41 12 41 -21z"/>
<path d="M3302 8018 c-17 -17 -15 -63 3 -78 16 -13 65 -6 65 10 0 6 -8 5 -19
-1 -28 -18 -51 -4 -51 31 0 35 23 49 51 31 11 -6 19 -7 19 -2 0 20 -50 27 -68
9z"/>
<path d="M3393 7980 c0 -30 2 -43 4 -27 2 15 2 39 0 55 -2 15 -4 2 -4 -28z"/>
<path d="M3608 8018 c-8 -24 7 -81 22 -85 12 -4 12 -2 2 5 -7 5 -12 24 -10 45
2 37 -6 58 -14 35z"/>
<path d="M3693 7980 c0 -30 2 -43 4 -27 2 15 2 39 0 55 -2 15 -4 2 -4 -28z"/>
<path d="M3770 8021 c0 -5 -9 -11 -20 -14 -38 -10 -37 -64 1 -75 8 -2 6 2 -5
10 -21 17 -18 51 6 56 13 2 18 -6 21 -35 3 -32 4 -30 5 15 1 28 0 52 -3 52 -3
0 -5 -4 -5 -9z"/>
<path d="M3433 7970 c0 -25 2 -35 4 -22 2 12 2 32 0 45 -2 12 -4 2 -4 -23z"/>
<path d="M3460 7995 c-15 -18 -10 -45 12 -59 12 -7 21 -7 28 0 8 8 4 10 -11
10 -12 -1 -24 5 -26 12 -3 7 6 12 24 13 l28 1 -30 8 c-24 5 -27 8 -13 14 9 4
22 4 29 0 8 -4 9 -3 5 4 -10 16 -31 15 -46 -3z"/>
<path d="M3531 7966 l2 -41 6 35 c4 22 12 35 21 35 9 0 18 -13 22 -35 l6 -35
-1 40 c-2 36 -5 40 -29 41 -26 1 -28 -1 -27 -40z"/>
<path d="M3302 7228 c-19 -19 -15 -27 24 -43 19 -8 33 -19 29 -25 -8 -14 -38
-13 -53 2 -9 9 -12 9 -12 0 0 -17 48 -26 65 -12 20 16 9 37 -27 49 -16 6 -27
15 -23 21 8 13 42 13 48 0 3 -6 4 -5 3 2 -3 18 -38 22 -54 6z"/>
<path d="M3658 7230 c-5 -17 3 -90 11 -90 3 0 5 21 4 46 -1 46 -8 65 -15 44z"/>
<path d="M3390 7205 c-15 -18 -10 -45 12 -59 12 -7 21 -7 28 0 8 8 4 10 -11
10 -12 -1 -24 5 -26 12 -3 7 6 12 24 13 l28 1 -30 8 c-24 5 -27 8 -13 14 9 4
22 4 29 0 8 -4 9 -3 5 4 -10 16 -31 15 -46 -3z"/>
<path d="M3464 7206 c-16 -42 20 -86 48 -58 6 6 0 8 -16 5 -24 -5 -26 -2 -26
27 0 27 3 32 20 27 11 -3 20 -1 20 4 0 15 -40 10 -46 -5z"/>
<path d="M3531 7175 c2 -33 3 -35 6 -10 2 17 11 35 20 42 13 10 13 12 -6 10
-18 -1 -21 -7 -20 -42z"/>
<path d="M3584 7206 c-16 -42 20 -86 48 -58 6 6 0 8 -16 5 -19 -4 -26 -1 -26
11 0 11 9 16 26 16 20 0 25 4 20 16 -3 9 -6 18 -6 20 0 11 -41 2 -46 -10z m41
-6 c3 -5 -3 -10 -14 -10 -12 0 -21 5 -21 10 0 6 6 10 14 10 8 0 18 -4 21 -10z"/>
<path d="M3302 6438 c-7 -7 -12 -24 -12 -38 0 -31 17 -50 45 -50 28 0 45 19
45 50 0 31 -17 50 -45 50 -12 0 -26 -5 -33 -12z m66 -32 c4 -36 -10 -50 -42
-42 -21 5 -26 13 -26 35 0 31 12 41 45 38 14 -1 21 -11 23 -31z"/>
<path d="M3662 6400 c1 -43 2 -46 5 -17 3 23 9 37 18 37 9 0 15 -14 18 -37 l4
-38 1 38 c2 28 -3 39 -15 44 -10 4 -21 11 -25 17 -4 6 -7 -14 -6 -44z"/>
<path d="M3401 6386 c2 -34 3 -36 6 -11 6 40 18 51 38 35 10 -8 15 -9 15 -1 0
6 6 11 14 11 9 0 16 -13 19 -35 l4 -35 -1 37 -1 38 -47 1 -48 1 1 -41z"/>
<path d="M3517 6423 c-13 -12 -7 -23 18 -35 33 -15 32 -32 -1 -25 -16 3 -22 1
-16 -5 15 -15 46 -5 50 14 2 12 -5 19 -22 24 -14 3 -26 11 -26 16 0 6 9 8 20
5 11 -3 20 -1 20 4 0 10 -33 12 -43 2z"/>
<path d="M3590 6415 c-15 -18 -10 -45 12 -59 12 -7 21 -7 28 0 8 8 4 10 -12
10 -18 -1 -23 4 -23 24 0 19 5 25 22 24 12 0 20 3 17 8 -8 13 -30 9 -44 -7z"/>
<path d="M3744 6416 c-3 -8 -4 -27 -1 -43 3 -24 4 -23 6 9 0 20 7 39 14 41 9
4 9 6 -1 6 -7 1 -15 -5 -18 -13z"/>
<path d="M3783 6390 c0 -25 2 -35 4 -22 2 12 2 32 0 45 -2 12 -4 2 -4 -23z"/>
<path d="M3808 6375 c-1 -30 0 -55 5 -55 4 0 7 25 7 55 0 71 -7 71 -12 0z"/>
<path d="M3847 6412 c11 -48 16 -62 22 -62 9 0 32 72 26 78 -2 2 -7 -7 -11
-22 -8 -32 -17 -33 -30 -3 -6 12 -9 16 -7 9z"/>
<path d="M3923 6390 c0 -25 2 -35 4 -22 2 12 2 32 0 45 -2 12 -4 2 -4 -23z"/>
<path d="M3954 6417 c-3 -9 -4 -28 -1 -44 3 -23 4 -22 6 10 1 25 6 37 15 37
10 0 16 -14 19 -37 l4 -38 -1 40 c-1 29 -6 41 -19 43 -9 2 -20 -3 -23 -11z"/>
<path d="M4024 6416 c-12 -31 0 -61 24 -60 12 0 21 -4 19 -10 -2 -6 -14 -11
-26 -10 -15 0 -19 -2 -11 -10 20 -20 45 8 48 55 3 42 1 45 -23 47 -15 1 -28
-4 -31 -12z m41 -26 c0 -16 -6 -26 -17 -28 -14 -3 -18 3 -18 28 0 25 4 31 18
28 11 -2 17 -12 17 -28z"/>
<path d="M3302 5603 l-2 -63 33 1 c29 2 30 2 5 6 -25 4 -27 8 -31 61 l-3 57
-2 -62z"/>
<path d="M3610 5646 c0 -8 -10 -16 -22 -18 -20 -3 -23 -9 -23 -43 0 -38 2 -40
33 -43 l32 -3 0 60 c0 34 -4 61 -10 61 -5 0 -10 -6 -10 -14z m2 -43 c7 -30 -4
-54 -21 -51 -29 6 -27 68 3 68 8 0 16 -8 18 -17z"/>
<path d="M3389 5613 c-13 -16 -12 -17 3 -4 10 7 26 10 35 6 15 -5 12 -9 -15
-21 -45 -18 -41 -49 6 -50 33 -1 33 0 30 40 -2 33 -7 42 -24 44 -11 2 -27 -5
-35 -15z m47 -39 c-3 -9 -6 -18 -6 -20 0 -2 -9 -4 -20 -4 -25 0 -27 27 -2 33
31 8 34 7 28 -9z"/>
<path d="M3471 5580 l2 -45 6 40 c4 27 12 41 24 43 14 3 17 -4 17 -37 0 -23 5
-41 10 -41 12 0 13 60 2 78 -5 6 -20 11 -35 10 -25 -2 -27 -5 -26 -48z"/>
<path d="M3632 5288 l1 -63 6 55 6 55 14 -52 c16 -58 26 -66 35 -29 3 13 8 32
11 43 3 10 -1 5 -8 -11 -15 -31 -19 -29 -36 27 -19 56 -31 45 -29 -25z"/>
<path d="M3717 5343 c-2 -5 -1 -33 3 -63 l7 -55 2 63 c1 58 -2 73 -12 55z"/>
<path d="M3943 5290 c0 -36 2 -55 4 -42 2 12 7 22 10 22 2 0 14 -10 24 -22
l20 -23 -15 31 c-13 28 -13 32 2 47 9 10 11 17 5 17 -6 0 -17 -7 -24 -17 -13
-15 -15 -13 -20 18 -5 24 -6 16 -6 -31z"/>
<path d="M4313 5290 c0 -36 2 -55 4 -42 5 27 19 28 35 2 7 -11 17 -20 21 -20
5 0 -1 13 -12 28 -19 27 -19 30 -3 48 16 18 16 18 -4 1 -28 -23 -32 -22 -37
16 -2 17 -4 3 -4 -33z"/>
<path d="M3767 5313 c-4 -3 -7 -11 -7 -17 0 -6 5 -5 12 2 14 14 38 16 38 2 0
-5 -11 -13 -26 -16 -18 -5 -24 -12 -22 -28 2 -16 10 -21 36 -21 28 -1 32 2 32
26 0 42 -10 59 -34 59 -13 0 -26 -3 -29 -7z m40 -58 c-4 -8 -13 -15 -22 -15
-21 0 -19 28 3 32 22 5 26 2 19 -17z"/>
<path d="M3857 5313 c-4 -3 -7 -11 -7 -17 0 -6 5 -5 12 2 14 14 38 16 38 2 0
-5 -11 -13 -26 -16 -18 -5 -24 -12 -22 -28 2 -16 10 -21 36 -21 28 -1 32 2 32
26 0 42 -10 59 -34 59 -13 0 -26 -3 -29 -7z m40 -58 c-4 -8 -13 -15 -22 -15
-21 0 -19 28 3 32 22 5 26 2 19 -17z"/>
<path d="M4061 5290 c-1 -46 9 -61 42 -58 25 2 27 5 26 48 -1 25 -3 36 -6 25
-2 -11 -6 -30 -9 -42 -2 -13 -11 -23 -19 -23 -8 0 -17 10 -19 23 -3 12 -7 31
-9 42 -3 11 -5 4 -6 -15z"/>
<path d="M4154 5281 c6 -22 15 -43 20 -48 5 -5 6 0 2 12 -4 11 -10 32 -13 48
-3 15 -9 27 -13 27 -4 0 -3 -18 4 -39z"/>
<path d="M4190 5306 c0 -8 5 -18 10 -21 6 -3 10 3 10 14 0 12 -4 21 -10 21 -5
0 -10 -6 -10 -14z"/>
<path d="M4235 5291 c-4 -17 -11 -29 -16 -25 -5 3 -9 -4 -9 -15 0 -12 4 -21 8
-21 10 0 36 79 29 87 -3 2 -8 -9 -12 -26z"/>
<path d="M4400 5306 c-15 -20 -9 -56 12 -70 14 -8 21 -6 35 9 16 17 17 18 1 6
-19 -14 -48 -9 -48 9 0 5 14 10 30 10 31 0 39 17 18 38 -16 16 -33 15 -48 -2z
m48 -13 c2 -8 -6 -13 -22 -13 -25 0 -33 10 -19 24 10 10 36 3 41 -11z"/>
<path d="M4484 5280 c1 -36 5 -45 21 -48 18 -4 19 -3 3 10 -9 7 -19 29 -21 48
-3 26 -4 24 -3 -10z"/>
<path d="M4530 5281 c0 -22 5 -43 10 -46 6 -4 10 12 10 39 0 25 -4 46 -10 46
-5 0 -10 -18 -10 -39z"/>
<path d="M4588 5313 c28 -5 28 -7 -4 -49 l-26 -34 38 1 c31 2 34 3 11 6 l-28
4 25 34 c14 19 26 36 26 39 0 3 -15 5 -32 5 -24 -1 -27 -3 -10 -6z"/>
<path d="M4660 5306 c-15 -20 -9 -56 12 -70 14 -8 21 -6 35 9 16 17 17 18 1 6
-19 -14 -48 -9 -48 9 0 5 14 10 30 10 31 0 39 17 18 38 -16 16 -33 15 -48 -2z
m48 -13 c2 -8 -6 -13 -22 -13 -25 0 -33 10 -19 24 10 10 36 3 41 -11z"/>
<path d="M6860 5303 c0 -5 11 -20 25 -33 l25 -23 25 23 c14 13 25 28 25 33 0
6 -11 0 -25 -13 l-25 -23 -25 23 c-14 13 -25 19 -25 13z"/>
<path d="M3428 5263 c6 -2 18 -2 25 0 6 3 1 5 -13 5 -14 0 -19 -2 -12 -5z"/>
<path d="M3478 5263 c6 -2 18 -2 25 0 6 3 1 5 -13 5 -14 0 -19 -2 -12 -5z"/>
<path d="M3538 5263 c6 -2 18 -2 25 0 6 3 1 5 -13 5 -14 0 -19 -2 -12 -5z"/>
<path d="M4788 5263 c6 -2 18 -2 25 0 6 3 1 5 -13 5 -14 0 -19 -2 -12 -5z"/>
<path d="M4838 5263 c6 -2 18 -2 25 0 6 3 1 5 -13 5 -14 0 -19 -2 -12 -5z"/>
<path d="M4898 5263 c6 -2 18 -2 25 0 6 3 1 5 -13 5 -14 0 -19 -2 -12 -5z"/>
<path d="M3296 4834 c-13 -13 -16 -43 -16 -174 0 -131 3 -161 16 -174 14 -14
109 -16 899 -16 790 0 885 2 899 16 24 23 24 325 0 348 -14 14 -109 16 -899
16 -790 0 -885 -2 -899 -16z m169 -148 l11 -38 16 41 c25 64 48 55 48 -19 0
-47 -3 -60 -15 -60 -10 0 -15 11 -16 33 l-1 32 -10 -32 c-14 -44 -34 -42 -46
5 l-10 37 -1 -37 c-2 -64 -21 -42 -21 23 0 52 2 60 17 57 10 -2 22 -19 28 -42z
m285 12 c1 -27 2 -30 11 -15 5 9 17 17 27 17 15 0 15 -1 0 -17 -16 -15 -16
-18 3 -45 16 -22 17 -28 6 -28 -8 0 -22 10 -30 23 l-16 22 0 -22 c-1 -13 -5
-23 -11 -23 -6 0 -10 27 -10 60 0 33 4 60 10 60 6 0 10 -15 10 -32z m130 18
c0 -8 10 -16 23 -18 17 -2 23 -11 25 -37 4 -38 -9 -51 -50 -51 -27 0 -28 1
-28 60 0 47 3 60 15 60 8 0 15 -6 15 -14z m170 -46 c0 -33 -4 -60 -10 -60 -6
0 -10 27 -10 60 0 33 4 60 10 60 6 0 10 -27 10 -60z m614 28 c8 -5 7 -8 -1 -8
-8 0 -13 -14 -13 -34 0 -19 6 -37 13 -39 6 -3 2 -6 -9 -6 -19 -1 -22 5 -26 45
-3 47 11 93 20 64 3 -8 10 -18 16 -22z m-1036 -46 l3 -43 -38 3 c-30 2 -39 8
-41 24 -2 16 4 23 22 28 15 3 26 11 26 16 0 14 -13 13 -28 -2 -14 -14 -27 -5
-17 12 4 6 21 10 38 8 30 -3 32 -6 35 -46z m90 0 l3 -43 -38 3 c-30 2 -39 8
-41 24 -2 16 4 23 22 28 15 3 26 11 26 16 0 14 -13 13 -28 -2 -14 -14 -27 -5
-17 12 4 6 21 10 38 8 30 -3 32 -6 35 -46z m300 6 c3 -29 -1 -38 -17 -43 -38
-12 -61 3 -61 40 0 36 11 45 50 42 21 -2 25 -8 28 -39z m170 -6 l3 -43 -38 3
c-30 2 -39 8 -41 24 -2 16 4 23 22 28 15 3 26 11 26 16 0 14 -13 13 -28 -2
-14 -14 -27 -5 -17 12 4 6 21 10 38 8 30 -3 32 -6 35 -46z m77 38 c4 -6 -4 -9
-17 -7 -17 1 -24 -4 -26 -22 -5 -30 8 -42 35 -35 16 4 23 15 25 38 2 24 8 32
27 34 13 2 28 -1 34 -7 9 -9 5 -11 -13 -9 -20 2 -26 -2 -28 -21 -5 -30 8 -42
35 -35 16 4 23 15 25 38 2 24 8 32 26 34 30 4 52 -14 52 -43 0 -37 -19 -43
-130 -41 l-105 1 -3 28 c-2 16 -1 35 2 43 6 16 52 19 61 4z m205 -14 c0 -33
10 -57 21 -50 5 3 9 21 9 40 0 24 5 34 15 34 11 0 15 -12 15 -46 l0 -45 -37 3
c-37 3 -38 4 -41 46 -2 25 1 42 7 42 6 0 11 -11 11 -24z m138 -23 c2 -24 -1
-43 -7 -43 -5 0 -11 17 -13 38 -2 20 -7 37 -13 37 -5 0 -11 -17 -13 -37 -5
-54 -22 -47 -22 8 0 45 0 45 33 42 30 -3 32 -6 35 -45z m183 -1 l5 -43 -40 3
c-54 4 -62 32 -15 52 22 9 28 16 18 21 -7 5 -14 4 -17 -3 -2 -7 -11 -12 -19
-12 -13 0 -13 3 -3 16 8 8 25 14 39 12 22 -3 27 -9 32 -46z m90 0 l5 -43 -40
3 c-54 4 -62 32 -15 52 22 9 28 16 18 21 -7 5 -14 4 -17 -3 -2 -7 -11 -12 -19
-12 -13 0 -13 3 -3 16 8 8 25 14 39 12 22 -3 27 -9 32 -46z m87 1 c2 -24 -1
-43 -7 -43 -5 0 -11 17 -13 38 -2 20 -7 37 -13 37 -5 0 -11 -17 -13 -37 -5
-54 -22 -47 -22 8 0 45 0 45 33 42 30 -3 32 -6 35 -45z"/>
<path d="M3876 4672 c-8 -24 3 -54 18 -49 15 5 14 59 -1 64 -6 2 -14 -5 -17
-15z"/>
<path d="M3570 4634 c0 -9 5 -14 12 -12 18 6 21 28 4 28 -9 0 -16 -7 -16 -16z"/>
<path d="M3660 4634 c0 -9 5 -14 12 -12 18 6 21 28 4 28 -9 0 -16 -7 -16 -16z"/>
<path d="M3964 4676 c-9 -23 0 -51 16 -51 10 0 15 10 15 29 0 32 -21 47 -31
22z"/>
<path d="M4130 4634 c0 -9 5 -14 12 -12 18 6 21 28 4 28 -9 0 -16 -7 -16 -16z"/>
<path d="M4384 4676 c-8 -21 -1 -49 13 -53 6 -2 14 5 17 15 12 36 -17 72 -30
38z"/>
<path d="M4745 4647 c-14 -11 -15 -16 -5 -22 11 -7 29 9 30 28 0 10 -3 9 -25
-6z"/>
<path d="M4835 4647 c-14 -11 -15 -16 -5 -22 11 -7 29 9 30 28 0 10 -3 9 -25
-6z"/>
<path d="M7691 8663 c-2 -25 23 -113 32 -113 5 0 6 8 2 18 -4 9 -13 37 -20 62
-7 25 -14 40 -14 33z"/>
<path d="M7741 8633 c-15 -53 -12 -67 4 -18 l12 40 13 -45 c19 -65 27 -68 40
-19 6 24 14 53 17 64 3 11 2 16 -3 12 -5 -5 -14 -30 -19 -55 l-11 -47 -14 53
c-8 28 -17 52 -21 52 -5 0 -13 -17 -18 -37z"/>
<path d="M8063 8610 c0 -36 2 -55 4 -42 5 27 19 28 35 2 7 -11 17 -20 21 -20
5 0 -1 13 -12 28 -19 27 -19 30 -3 48 16 18 16 18 -4 1 -28 -23 -32 -22 -37
16 -2 17 -4 3 -4 -33z"/>
<path d="M8503 8610 c0 -36 2 -50 4 -32 2 17 2 47 0 65 -2 17 -4 3 -4 -33z"/>
<path d="M12103 8610 c-12 -33 -18 -60 -13 -60 4 0 10 9 13 20 7 28 51 27 66
-2 11 -23 11 -23 6 3 -6 36 -34 99 -43 99 -4 0 -17 -27 -29 -60z m46 3 c1 -7
-8 -13 -18 -13 -18 0 -19 3 -9 32 10 28 12 30 19 12 4 -10 8 -25 8 -31z"/>
<path d="M12200 8610 c0 -33 4 -60 10 -60 6 0 10 11 10 24 0 19 6 25 26 28 63
7 51 68 -12 68 l-34 0 0 -60z m74 41 c11 -18 -6 -41 -30 -41 -19 0 -24 5 -24
25 0 20 5 25 24 25 14 0 27 -4 30 -9z"/>
<path d="M12313 8610 c0 -36 2 -50 4 -32 2 17 2 47 0 65 -2 17 -4 3 -4 -33z"/>
<path d="M12403 8610 c0 -36 2 -55 4 -42 5 27 20 29 28 2 3 -11 11 -20 17 -20
6 0 3 12 -7 26 -16 24 -16 27 1 45 9 10 12 19 7 19 -6 0 -17 -7 -24 -17 -13
-15 -15 -13 -20 18 -5 24 -6 16 -6 -31z"/>
<path d="M7853 8633 c-7 -2 -13 -20 -13 -38 0 -25 5 -35 20 -40 26 -8 50 11
50 39 0 36 -25 53 -57 39z m42 -38 c0 -23 -4 -30 -20 -30 -21 0 -31 25 -21 51
11 28 41 12 41 -21z"/>
<path d="M7943 8633 c-7 -2 -13 -20 -13 -38 0 -25 5 -35 20 -40 26 -8 50 11
50 39 0 36 -25 53 -57 39z m42 -38 c0 -23 -4 -30 -20 -30 -21 0 -31 25 -21 51
11 28 41 12 41 -21z"/>
<path d="M8150 8626 c-15 -19 -9 -56 12 -69 34 -22 66 41 36 71 -16 16 -33 15
-48 -2z m45 -31 c0 -23 -4 -30 -20 -30 -21 0 -31 25 -21 51 11 28 41 12 41
-21z"/>
<path d="M8231 8575 c1 -33 4 -50 6 -38 3 14 9 20 19 16 20 -7 44 15 44 42 0
28 -19 45 -48 42 -20 -1 -22 -6 -21 -62z m54 20 c0 -33 -28 -47 -39 -19 -10
25 3 56 22 52 11 -2 17 -13 17 -33z"/>
<path d="M8321 8575 c1 -33 4 -50 6 -38 3 14 9 20 19 16 20 -7 44 15 44 42 0
28 -19 45 -48 42 -20 -1 -22 -6 -21 -62z m54 20 c0 -23 -4 -30 -20 -30 -21 0
-31 25 -21 51 11 28 41 12 41 -21z"/>
<path d="M8420 8626 c-15 -20 -9 -56 12 -70 14 -8 21 -6 35 9 16 17 17 18 1 6
-19 -14 -48 -9 -48 9 0 5 14 10 30 10 31 0 39 17 18 38 -16 16 -33 15 -48 -2z
m48 -13 c2 -8 -6 -13 -22 -13 -25 0 -33 10 -19 24 10 10 36 3 41 -11z"/>
<path d="M8543 8595 c0 -27 2 -38 4 -22 2 15 2 37 0 50 -2 12 -4 0 -4 -28z"/>
<path d="M8571 8590 l2 -45 6 40 c4 27 12 41 24 43 14 3 17 -4 17 -37 0 -23 5
-41 10 -41 12 0 13 60 2 78 -5 6 -20 11 -35 10 -25 -2 -27 -5 -26 -48z"/>
<path d="M8664 8626 c-3 -8 -4 -27 -2 -43 2 -22 8 -28 26 -27 13 0 22 -5 22
-14 0 -10 -8 -13 -25 -10 -13 3 -22 1 -19 -3 7 -12 41 -11 49 1 3 5 9 32 12
60 l6 50 -32 0 c-18 0 -34 -6 -37 -14z m41 -32 c0 -19 -5 -29 -15 -29 -16 0
-25 28 -16 51 10 25 31 10 31 -22z"/>
<path d="M12478 8615 c-8 -19 -9 -31 -1 -43 12 -20 55 -23 59 -4 1 7 0 8 -3 2
-7 -15 -40 -12 -47 5 -4 11 2 15 25 15 26 0 30 3 27 23 -5 34 -45 35 -60 2z
m50 -2 c2 -8 -6 -13 -22 -13 -19 0 -24 4 -19 15 6 18 34 16 41 -2z"/>
<path d="M12564 8624 c26 -63 28 -75 16 -89 -8 -9 -8 -15 -2 -15 12 0 56 110
48 118 -5 4 -13 -13 -28 -58 -3 -9 -8 -2 -12 17 -4 18 -12 36 -18 40 -8 4 -9
0 -4 -13z"/>
<path d="M12104 8164 c-31 -47 6 -104 59 -90 20 5 27 13 27 31 0 20 -5 25 -22
24 -17 -1 -19 -2 -5 -6 9 -2 17 -11 17 -18 0 -37 -66 -29 -76 9 -12 51 39 87
76 54 12 -11 12 -10 1 5 -20 25 -58 21 -77 -9z"/>
<path d="M12311 8134 c-1 -60 -1 -61 27 -60 25 1 27 4 27 41 0 33 -3 40 -20
40 -11 0 -23 9 -27 20 -3 11 -6 -7 -7 -41z m44 -20 c0 -19 -5 -29 -15 -29 -16
0 -25 28 -16 51 10 25 31 10 31 -22z"/>
<path d="M12573 8130 c0 -36 2 -55 4 -42 5 27 19 28 35 2 7 -11 17 -20 21 -20
5 0 -1 13 -12 28 -19 27 -19 30 -3 48 16 18 16 18 -4 1 -28 -23 -32 -22 -37
16 -2 17 -4 3 -4 -33z"/>
<path d="M12750 8171 c0 -14 -5 -18 -19 -14 -27 7 -47 -31 -32 -63 7 -17 18
-23 36 -22 24 2 25 6 25 60 0 32 -2 58 -5 58 -3 0 -5 -9 -5 -19z m-5 -56 c0
-33 -28 -47 -39 -19 -10 25 3 56 22 52 11 -2 17 -13 17 -33z"/>
<path d="M13093 8130 c0 -36 2 -50 4 -32 2 17 2 47 0 65 -2 17 -4 3 -4 -33z"/>
<path d="M13440 8176 c0 -8 -10 -16 -22 -18 -20 -3 -23 -9 -23 -43 0 -38 2
-40 33 -43 l32 -3 0 60 c0 34 -4 61 -10 61 -5 0 -10 -6 -10 -14z m2 -43 c7
-30 -4 -54 -21 -51 -29 6 -27 68 3 68 8 0 16 -8 18 -17z"/>
<path d="M13873 8130 c0 -36 2 -55 4 -42 5 27 19 28 35 2 7 -11 17 -20 21 -20
5 0 -1 13 -12 28 -19 27 -19 30 -3 48 16 18 16 18 -4 1 -28 -23 -32 -22 -37
16 -2 17 -4 3 -4 -33z"/>
<path d="M14810 8176 c0 -8 -10 -16 -22 -18 -20 -3 -23 -9 -23 -43 0 -38 2
-40 33 -43 l32 -3 0 60 c0 34 -4 61 -10 61 -5 0 -10 -6 -10 -14z m2 -43 c7
-30 -4 -54 -21 -51 -29 6 -27 68 3 68 8 0 16 -8 18 -17z"/>
<path d="M15491 8135 c-1 -56 1 -61 21 -62 29 -3 48 14 48 42 0 27 -24 49 -44
42 -10 -4 -16 2 -19 16 -2 12 -5 -5 -6 -38z m54 -20 c0 -23 -4 -30 -20 -30
-21 0 -31 25 -21 51 11 28 41 12 41 -21z"/>
<path d="M15698 8170 c-1 -5 -2 -31 0 -55 3 -34 8 -45 21 -45 12 0 13 2 3 9
-8 5 -12 24 -11 49 3 40 -5 65 -13 42z"/>
<path d="M12219 8139 c-16 -31 4 -71 33 -67 12 2 23 10 25 18 4 12 3 13 -5 1
-6 -8 -17 -11 -26 -8 -27 10 -18 27 14 27 33 0 35 3 20 31 -14 25 -46 24 -61
-2z m55 -4 c4 -11 -1 -15 -19 -15 -24 0 -32 10 -18 23 11 12 31 8 37 -8z"/>
<path d="M12402 8113 l1 -48 4 42 c3 29 9 43 21 46 12 3 11 5 -5 6 -21 1 -23
-3 -21 -46z"/>
<path d="M12454 8118 c1 -40 3 -43 29 -44 26 -1 27 1 26 45 l-2 46 -6 -40 c-9
-57 -38 -61 -44 -6 l-4 41 1 -42z"/>
<path d="M12543 8115 c0 -27 2 -38 4 -22 2 15 2 37 0 50 -2 12 -4 0 -4 -28z"/>
<path d="M12788 8135 c-8 -19 -9 -31 -1 -43 12 -20 55 -23 59 -4 1 7 0 8 -3 2
-7 -15 -40 -12 -47 5 -4 11 2 15 25 15 26 0 30 3 27 23 -5 34 -45 35 -60 2z
m50 -2 c2 -8 -6 -13 -22 -13 -19 0 -24 4 -19 15 6 18 34 16 41 -2z"/>
<path d="M12927 8115 c8 -25 18 -45 22 -45 9 0 34 80 28 87 -3 2 -8 -9 -12
-26 -8 -39 -22 -40 -30 -1 -4 17 -10 30 -15 30 -5 0 -2 -20 7 -45z"/>
<path d="M13013 8153 c-7 -2 -13 -20 -13 -38 0 -25 5 -35 20 -40 26 -8 50 11
50 39 0 36 -25 53 -57 39z m42 -38 c0 -23 -4 -30 -20 -30 -21 0 -31 25 -21 51
11 28 41 12 41 -21z"/>
<path d="M13132 8148 c-28 -28 -1 -88 34 -74 10 4 14 2 11 -6 -2 -7 -16 -12
-31 -11 -14 1 -24 -2 -21 -8 9 -13 39 -11 53 3 7 7 12 33 12 58 0 41 -3 46
-23 48 -13 1 -29 -4 -35 -10z m43 -33 c0 -23 -4 -30 -20 -30 -21 0 -31 25 -21
51 11 28 41 12 41 -21z"/>
<path d="M13220 8146 c-15 -20 -9 -56 12 -70 14 -8 21 -6 35 9 16 17 17 18 1
6 -19 -14 -48 -9 -48 9 0 5 14 10 30 10 31 0 39 17 18 38 -16 16 -33 15 -48
-2z m48 -13 c2 -8 -6 -13 -22 -13 -25 0 -33 10 -19 24 10 10 36 3 41 -11z"/>
<path d="M13301 8110 l1 -45 8 38 c8 44 14 51 35 44 9 -4 16 -20 16 -44 1 -25
3 -30 6 -14 3 12 2 34 -1 47 -5 20 -12 24 -36 22 -29 -2 -30 -4 -29 -48z"/>
<path d="M13490 8146 c-15 -20 -9 -56 12 -70 14 -8 21 -6 35 9 16 17 17 18 1
6 -19 -14 -48 -9 -48 9 0 5 14 10 30 10 31 0 39 17 18 38 -16 16 -33 15 -48
-2z m48 -13 c2 -8 -6 -13 -22 -13 -25 0 -33 10 -19 24 10 10 36 3 41 -11z"/>
<path d="M13619 8143 c-13 -16 -12 -17 3 -4 10 7 26 10 35 6 15 -5 12 -9 -15
-21 -45 -18 -41 -49 6 -50 33 -1 33 0 30 40 -2 33 -7 42 -24 44 -11 2 -27 -5
-35 -15z m47 -39 c-3 -9 -6 -18 -6 -20 0 -2 -9 -4 -20 -4 -25 0 -27 27 -2 33
31 8 34 7 28 -9z"/>
<path d="M13701 8095 c1 -33 4 -50 6 -38 3 14 9 20 19 16 20 -7 44 15 44 42 0
28 -19 45 -48 42 -20 -1 -22 -6 -21 -62z m54 20 c0 -33 -28 -47 -39 -19 -10
25 3 56 22 52 11 -2 17 -13 17 -33z"/>
<path d="M13793 8115 c0 -27 2 -38 4 -22 2 15 2 37 0 50 -2 12 -4 0 -4 -28z"/>
<path d="M13960 8146 c-15 -20 -9 -56 12 -70 14 -8 21 -6 35 9 16 17 17 18 1
6 -19 -14 -48 -9 -48 9 0 5 14 10 30 10 31 0 39 17 18 38 -16 16 -33 15 -48
-2z m48 -13 c2 -8 -6 -13 -22 -13 -25 0 -33 10 -19 24 10 10 36 3 41 -11z"/>
<path d="M14045 8140 c3 -14 8 -38 12 -54 4 -19 1 -31 -8 -37 -11 -7 -11 -9
-1 -9 14 0 37 48 46 96 5 28 5 27 -6 -3 -6 -18 -14 -33 -18 -33 -4 0 -12 15
-18 33 -7 17 -9 21 -7 7z"/>
<path d="M14173 8115 c0 -27 2 -38 4 -22 2 15 2 37 0 50 -2 12 -4 0 -4 -28z"/>
<path d="M14201 8110 l2 -45 6 40 c4 27 12 41 24 43 14 3 17 -4 17 -37 0 -23
5 -41 10 -41 12 0 13 60 2 78 -5 6 -20 11 -35 10 -25 -2 -27 -5 -26 -48z"/>
<path d="M14342 8115 c-1 -28 -7 -56 -14 -63 -9 -9 -9 -12 0 -12 18 0 24 21
19 76 l-3 49 -2 -50z"/>
<path d="M14380 8146 c-15 -20 -9 -56 12 -70 14 -8 21 -6 35 9 16 17 17 18 1
6 -19 -14 -48 -9 -48 9 0 5 14 10 30 10 31 0 39 17 18 38 -16 16 -33 15 -48
-2z m48 -13 c2 -8 -6 -13 -22 -13 -25 0 -33 10 -19 24 10 10 36 3 41 -11z"/>
<path d="M14504 8121 c6 -22 15 -43 20 -48 5 -5 6 0 2 12 -4 11 -10 32 -13 48
-3 15 -9 27 -13 27 -4 0 -3 -18 4 -39z"/>
<path d="M14540 8146 c0 -8 5 -18 10 -21 6 -3 10 3 10 14 0 12 -4 21 -10 21
-5 0 -10 -6 -10 -14z"/>
<path d="M14585 8131 c-4 -17 -11 -29 -16 -25 -5 3 -9 -4 -9 -15 0 -12 4 -21
8 -21 10 0 36 79 29 87 -3 2 -8 -9 -12 -26z"/>
<path d="M14619 8139 c-15 -29 3 -69 31 -69 28 0 46 40 31 69 -7 11 -20 21
-31 21 -11 0 -24 -10 -31 -21z m56 -8 c7 -24 -3 -51 -21 -51 -20 0 -34 31 -23
52 13 23 36 23 44 -1z"/>
<path d="M14712 8110 c1 -40 2 -41 5 -10 2 19 11 40 20 47 13 10 13 12 -6 10
-18 -1 -21 -7 -19 -47z"/>
<path d="M14851 8095 c1 -33 4 -50 6 -38 3 14 9 20 19 16 20 -7 44 15 44 42 0
28 -19 45 -48 42 -20 -1 -22 -6 -21 -62z m54 20 c0 -23 -4 -30 -20 -30 -21 0
-31 25 -21 51 11 28 41 12 41 -21z"/>
<path d="M14942 8110 c1 -40 2 -41 5 -10 2 19 11 40 20 47 13 10 13 12 -6 10
-18 -1 -21 -7 -19 -47z"/>
<path d="M15000 8146 c-15 -20 -9 -56 12 -70 14 -8 21 -6 35 9 16 17 17 18 1
6 -19 -14 -48 -9 -48 9 0 5 14 10 30 10 31 0 39 17 18 38 -16 16 -33 15 -48
-2z m48 -13 c2 -8 -6 -13 -22 -13 -25 0 -33 10 -19 24 10 10 36 3 41 -11z"/>
<path d="M15087 8153 c-14 -14 -6 -34 18 -43 33 -13 33 -34 -1 -27 -16 3 -22
1 -16 -5 15 -15 46 -5 50 15 2 11 -6 20 -22 27 -35 13 -34 34 0 26 17 -5 23
-3 19 4 -7 11 -38 14 -48 3z"/>
<path d="M15167 8153 c-14 -14 -6 -34 18 -43 33 -13 33 -34 -1 -27 -16 3 -22
1 -16 -5 15 -15 46 -5 50 15 2 11 -6 20 -22 27 -35 13 -34 34 0 26 17 -5 23
-3 19 4 -7 11 -38 14 -48 3z"/>
<path d="M15281 8155 c0 -5 4 -27 10 -48 10 -36 30 -43 28 -9 0 14 -2 14 -6 2
-4 -9 -11 -1 -19 25 -6 22 -12 36 -13 30z"/>
<path d="M15327 8154 c-10 -10 -9 -36 2 -30 5 3 12 -9 16 -27 l7 -32 14 30 c7
17 13 39 13 50 -1 11 -5 5 -11 -15 l-11 -35 -11 33 c-6 18 -15 30 -19 26z"/>
<path d="M15410 8146 c-15 -20 -9 -56 12 -70 14 -8 21 -6 35 9 16 17 17 18 1
6 -19 -14 -48 -9 -48 9 0 5 14 10 30 10 31 0 39 17 18 38 -16 16 -33 15 -48
-2z m48 -13 c2 -8 -6 -13 -22 -13 -25 0 -33 10 -19 24 10 10 36 3 41 -11z"/>
<path d="M15587 8153 c-14 -14 -6 -34 18 -43 33 -13 33 -34 -1 -27 -16 3 -22
1 -16 -5 15 -15 46 -5 50 15 2 11 -6 20 -22 27 -35 13 -34 34 0 26 17 -5 23
-3 19 4 -7 11 -38 14 -48 3z"/>
<path d="M15663 8115 c0 -27 2 -38 4 -22 2 15 2 37 0 50 -2 12 -4 0 -4 -28z"/>
<path d="M15750 8146 c-15 -20 -9 -56 12 -70 14 -8 21 -6 35 9 16 17 17 18 1
6 -19 -14 -48 -9 -48 9 0 5 14 10 30 10 31 0 39 17 18 38 -16 16 -33 15 -48
-2z m48 -13 c2 -8 -6 -13 -22 -13 -25 0 -33 10 -19 24 10 10 36 3 41 -11z"/>
<path d="M7693 7980 c0 -30 2 -43 4 -27 4 22 9 27 33 27 24 0 29 -5 33 -27 2
-16 4 -3 4 27 0 30 -2 45 -4 33 -3 -18 -11 -23 -33 -23 -22 0 -30 5 -33 23 -2
12 -4 -3 -4 -33z"/>
<path d="M7938 8018 c-8 -24 7 -81 22 -85 12 -4 12 -2 2 5 -7 5 -12 24 -10 45
2 37 -6 58 -14 35z"/>
<path d="M7794 7996 c-3 -8 -4 -25 -2 -38 2 -17 9 -23 28 -23 22 0 25 4 25 35
0 29 -4 36 -23 38 -13 2 -24 -3 -28 -12z m41 -26 c0 -27 -22 -39 -31 -16 -8
22 3 49 19 43 6 -2 12 -14 12 -27z"/>
<path d="M7877 8003 c-13 -13 -7 -31 13 -36 11 -3 20 -11 20 -17 0 -8 -8 -10
-21 -7 -16 4 -19 3 -11 -5 14 -14 42 -3 42 16 0 8 -9 18 -20 21 -26 8 -26 29
0 22 11 -3 18 -1 14 4 -6 11 -28 12 -37 2z"/>
<path d="M12581 7895 c-1 -56 1 -61 21 -62 29 -3 48 14 48 42 0 27 -24 49 -44
42 -10 -4 -16 2 -19 16 -2 12 -5 -5 -6 -38z m57 -18 c2 -18 -2 -29 -13 -33
-24 -9 -39 10 -31 41 9 35 40 30 44 -8z"/>
<path d="M12850 7930 c0 -13 -5 -18 -15 -14 -21 8 -45 -14 -45 -41 0 -28 19
-45 48 -42 20 1 22 7 22 59 0 32 -2 58 -5 58 -3 0 -5 -9 -5 -20z m-5 -55 c0
-33 -28 -47 -39 -19 -10 25 3 56 22 52 11 -2 17 -13 17 -33z"/>
<path d="M13150 7938 c0 -9 -6 -19 -12 -21 -10 -4 -10 -6 0 -6 7 -1 12 -16 12
-41 0 -22 3 -40 8 -40 8 0 6 109 -2 118 -3 3 -6 -2 -6 -10z"/>
<path d="M13543 7890 c0 -36 2 -55 4 -42 5 27 19 28 35 2 7 -11 17 -20 21 -20
5 0 -1 13 -12 28 -19 27 -19 30 -3 48 16 18 16 18 -4 1 -28 -23 -32 -22 -37
16 -2 17 -4 3 -4 -33z"/>
<path d="M14162 7890 c1 -54 2 -58 7 -25 4 26 11 40 21 40 10 0 17 -14 21 -40
l7 -40 -2 45 c-1 38 -4 45 -21 45 -11 0 -23 9 -27 20 -3 11 -6 -9 -6 -45z"/>
<path d="M14340 7938 c0 -9 -6 -19 -12 -21 -10 -4 -10 -6 0 -6 7 -1 12 -16 12
-41 0 -22 3 -40 8 -40 8 0 6 109 -2 118 -3 3 -6 -2 -6 -10z"/>
<path d="M14480 7930 c0 -13 -5 -18 -15 -14 -21 8 -45 -14 -45 -41 0 -28 19
-45 48 -42 20 1 22 7 22 59 0 32 -2 58 -5 58 -3 0 -5 -9 -5 -20z m-5 -39 c8
-26 -5 -53 -24 -49 -29 6 -27 68 3 68 8 0 17 -8 21 -19z"/>
<path d="M14683 7890 c0 -53 1 -57 6 -25 4 27 12 41 24 43 14 3 17 -4 17 -37
0 -23 5 -41 10 -41 12 0 13 60 1 79 -5 8 -18 12 -29 9 -16 -4 -22 0 -25 16 -2
11 -4 -8 -4 -44z"/>
<path d="M15050 7936 c0 -8 -10 -16 -22 -18 -20 -3 -23 -9 -23 -43 0 -38 2
-40 33 -43 l32 -3 0 60 c0 34 -4 61 -10 61 -5 0 -10 -6 -10 -14z m2 -43 c7
-30 -4 -54 -21 -51 -29 6 -27 68 3 68 8 0 16 -8 18 -17z"/>
<path d="M14068 7928 c-8 -22 7 -91 20 -94 7 -1 8 0 2 3 -12 6 -13 70 -1 75 5
2 3 8 -4 15 -10 9 -15 9 -17 1z"/>
<path d="M12100 7906 c-15 -19 -9 -56 12 -69 34 -22 66 41 36 71 -16 16 -33
15 -48 -2z m45 -31 c0 -23 -4 -30 -20 -30 -21 0 -31 25 -21 51 11 28 41 12 41
-21z"/>
<path d="M12181 7871 c1 -25 3 -37 6 -26 2 11 6 30 9 43 8 40 34 26 35 -20 l2
-43 6 40 c4 26 12 41 23 43 13 3 18 -6 21 -40 l4 -43 -1 45 -1 45 -52 1 -53 1
1 -46z"/>
<path d="M12367 7875 c8 -25 18 -45 22 -45 9 0 34 80 28 87 -3 2 -8 -9 -12
-26 -8 -39 -22 -40 -30 -1 -4 17 -10 30 -15 30 -5 0 -2 -20 7 -45z"/>
<path d="M12450 7906 c-15 -20 -9 -56 12 -70 14 -8 21 -6 35 9 16 17 17 18 1
6 -19 -14 -48 -9 -48 9 0 5 14 10 30 10 31 0 39 17 18 38 -16 16 -33 15 -48
-2z m48 -13 c2 -8 -6 -13 -22 -13 -25 0 -33 10 -19 24 10 10 36 3 41 -11z"/>
<path d="M12532 7870 c1 -40 2 -41 5 -10 2 19 11 40 20 47 13 10 13 12 -6 10
-18 -1 -21 -7 -19 -47z"/>
<path d="M12673 7875 c0 -27 2 -38 4 -22 2 15 2 37 0 50 -2 12 -4 0 -4 -28z"/>
<path d="M12711 7871 l2 -46 6 40 c4 26 11 40 21 40 10 0 17 -14 21 -40 l7
-40 -2 45 c-1 42 -3 45 -28 46 -27 1 -28 -1 -27 -45z"/>
<path d="M12893 7875 c0 -27 2 -38 4 -22 2 15 2 37 0 50 -2 12 -4 0 -4 -28z"/>
<path d="M12921 7870 l2 -45 6 40 c4 27 12 41 24 43 14 3 17 -4 17 -37 0 -23
5 -41 10 -41 12 0 13 60 2 78 -5 6 -20 11 -35 10 -25 -2 -27 -5 -26 -48z"/>
<path d="M13009 7899 c-16 -31 4 -73 32 -66 13 3 19 1 16 -6 -2 -7 -17 -11
-32 -10 -20 2 -25 -1 -18 -8 6 -6 21 -9 34 -7 22 3 24 9 27 58 3 53 2 56 -22
58 -17 1 -29 -5 -37 -19z m46 -24 c0 -33 -28 -47 -39 -19 -10 25 3 56 22 52
11 -2 17 -13 17 -33z"/>
<path d="M13189 7899 c-16 -31 4 -71 33 -67 12 2 23 10 25 18 4 12 3 13 -5 1
-6 -8 -17 -11 -26 -8 -27 10 -18 27 14 27 33 0 35 3 20 31 -14 25 -46 24 -61
-2z m55 -4 c4 -11 -1 -15 -19 -15 -24 0 -32 10 -18 23 11 12 31 8 37 -8z"/>
<path d="M13321 7871 l2 -46 6 40 c4 27 12 41 24 43 14 3 17 -4 18 -40 l2 -43
6 40 c4 26 12 41 23 43 13 3 18 -6 21 -40 l4 -43 -1 45 -1 45 -52 1 -53 1 1
-46z"/>
<path d="M13459 7903 c-13 -16 -12 -17 3 -4 10 7 26 10 35 6 15 -5 12 -9 -15
-21 -45 -18 -41 -49 6 -50 33 -1 33 0 30 40 -2 33 -7 42 -24 44 -11 2 -27 -5
-35 -15z m47 -39 c-3 -9 -6 -18 -6 -20 0 -2 -9 -4 -20 -4 -25 0 -27 27 -2 33
31 8 34 7 28 -9z"/>
<path d="M13630 7906 c-15 -20 -9 -56 12 -70 14 -8 21 -6 35 9 16 17 17 18 1
6 -19 -14 -48 -9 -48 9 0 5 14 10 30 10 31 0 39 17 18 38 -16 16 -33 15 -48
-2z m48 -13 c2 -8 -6 -13 -22 -13 -25 0 -33 10 -19 24 10 10 36 3 41 -11z"/>
<path d="M13711 7870 l2 -45 6 40 c4 27 12 41 24 43 14 3 17 -4 17 -37 0 -23
5 -41 10 -41 12 0 13 60 2 78 -5 6 -20 11 -35 10 -25 -2 -27 -5 -26 -48z"/>
<path d="M13853 7875 c0 -27 2 -38 4 -22 2 15 2 37 0 50 -2 12 -4 0 -4 -28z"/>
<path d="M13879 7912 c8 -6 17 -27 22 -48 l7 -39 -1 45 c-2 36 -6 45 -22 48
-15 2 -17 1 -6 -6z"/>
<path d="M13928 7913 c7 -2 12 -22 12 -44 0 -21 5 -39 10 -39 11 0 14 49 4 74
-3 9 -14 16 -23 15 -10 0 -11 -2 -3 -6z"/>
<path d="M13979 7899 c-16 -31 4 -71 33 -67 12 2 23 10 25 18 4 12 3 13 -5 1
-6 -8 -17 -11 -26 -8 -27 10 -18 27 14 27 33 0 35 3 20 31 -14 25 -46 24 -61
-2z m55 -4 c4 -11 -1 -15 -19 -15 -24 0 -32 10 -18 23 11 12 31 8 37 -8z"/>
<path d="M14248 7895 c-8 -19 -9 -31 -1 -43 12 -20 55 -23 59 -4 1 7 0 8 -3 2
-7 -15 -40 -12 -47 5 -4 11 2 15 25 15 26 0 30 3 27 23 -5 34 -45 35 -60 2z
m50 -2 c2 -8 -6 -13 -22 -13 -19 0 -24 4 -19 15 6 18 34 16 41 -2z"/>
<path d="M14519 7903 c-13 -16 -12 -17 3 -4 10 7 26 10 35 6 15 -5 12 -9 -15
-21 -45 -18 -41 -49 6 -50 33 -1 33 0 30 40 -2 33 -7 42 -24 44 -11 2 -27 -5
-35 -15z m47 -39 c-3 -9 -6 -18 -6 -20 0 -2 -9 -4 -20 -4 -25 0 -27 27 -2 33
31 8 34 7 28 -9z"/>
<path d="M14607 7913 c-14 -14 -6 -34 18 -43 33 -13 33 -34 -1 -27 -16 3 -22
1 -16 -5 15 -15 46 -5 50 15 2 11 -6 20 -22 27 -35 13 -34 34 0 26 17 -5 23
-3 19 4 -7 11 -38 14 -48 3z"/>
<path d="M14783 7913 c-7 -2 -13 -20 -13 -38 0 -25 5 -35 20 -40 26 -8 50 11
50 39 0 36 -25 53 -57 39z m42 -38 c0 -23 -4 -30 -20 -30 -21 0 -31 25 -21 51
11 28 41 12 41 -21z"/>
<path d="M14865 7910 c-4 -6 -4 -14 -1 -17 3 -4 6 -1 6 5 0 7 9 12 20 12 27 0
25 -17 -2 -26 -49 -15 -44 -54 6 -52 31 1 32 2 26 42 -4 32 -10 42 -27 44 -11
2 -24 -2 -28 -8z m45 -45 c0 -19 -24 -30 -41 -19 -9 5 -7 11 6 21 24 17 35 17
35 -2z"/>
<path d="M14952 7870 c1 -40 2 -41 5 -10 2 19 11 40 20 47 13 10 13 12 -6 10
-18 -1 -21 -7 -19 -47z"/>
<path d="M12232 7388 c-26 -26 0 -77 33 -64 17 6 19 -2 5 -24 -8 -13 -13 -13
-32 -1 -22 13 -22 13 -5 -5 25 -27 51 -8 55 40 5 54 -26 84 -56 54z m43 -28
c0 -16 -6 -26 -18 -28 -19 -4 -32 20 -23 44 9 25 41 13 41 -16z"/>
<path d="M12322 7388 c-26 -26 0 -77 33 -64 17 6 19 -2 5 -24 -8 -13 -13 -13
-32 -1 -22 13 -22 13 -5 -5 25 -27 51 -8 55 40 5 54 -26 84 -56 54z m43 -28
c0 -16 -6 -26 -18 -28 -19 -4 -32 20 -23 44 9 25 41 13 41 -16z"/>
<path d="M12422 7361 c-27 -48 -27 -51 -2 -51 11 0 20 -7 20 -15 0 -20 18 -19
22 2 5 26 -3 103 -11 103 -4 0 -17 -17 -29 -39z m18 -16 c0 -15 -6 -25 -15
-25 -12 0 -13 4 -3 25 6 14 13 25 15 25 1 0 3 -11 3 -25z"/>
<path d="M12500 7383 c0 -12 3 -14 8 -7 4 7 16 14 27 17 15 4 14 5 -7 6 -21 1
-28 -4 -28 -16z"/>
<path d="M12584 7386 c-3 -7 -4 -33 -2 -57 3 -39 6 -44 28 -44 31 0 47 46 31
88 -11 29 -47 38 -57 13z m41 -47 c0 -32 -4 -44 -15 -44 -16 0 -26 54 -16 82
12 30 31 6 31 -38z"/>
<path d="M12754 7386 c-10 -27 1 -61 21 -64 19 -4 19 -3 1 10 -22 17 -18 51 7
56 14 3 17 -4 17 -43 0 -48 -23 -72 -41 -44 -6 9 -9 10 -9 2 0 -17 17 -25 39
-18 42 13 33 115 -9 115 -11 0 -23 -6 -26 -14z"/>
<path d="M12948 7362 c-34 -51 -34 -52 -4 -52 15 0 26 -7 28 -17 7 -34 14 19
8 66 l-5 45 -27 -42z m22 -17 c0 -18 -5 -25 -20 -25 -20 0 -20 1 -4 25 9 14
18 25 20 25 2 0 4 -11 4 -25z"/>
<path d="M13020 7380 c-15 -28 5 -64 31 -57 12 3 19 0 19 -9 0 -20 -30 -30
-41 -13 -6 10 -9 11 -9 1 0 -19 28 -26 45 -12 8 7 15 29 15 49 0 57 -38 82
-60 41z m45 -20 c0 -28 -29 -40 -38 -15 -9 22 3 46 22 43 10 -2 16 -13 16 -28z"/>
<path d="M13128 7365 c-34 -49 -35 -55 -4 -55 15 0 26 -7 28 -17 7 -35 14 19
8 67 l-5 45 -27 -40z m19 -42 c-3 -3 -13 -3 -21 -1 -15 3 -15 6 1 28 l18 25 3
-23 c2 -13 1 -26 -1 -29z"/>
<path d="M13377 7393 c-4 -3 -7 -11 -7 -17 0 -6 5 -5 12 2 16 16 35 15 42 -3
3 -9 -7 -29 -24 -49 -17 -18 -30 -36 -30 -40 0 -3 17 -5 38 -5 l37 2 -34 6
-33 6 22 20 c33 30 43 54 29 71 -12 15 -41 19 -52 7z"/>
<path d="M13467 7393 c-4 -3 -7 -11 -7 -17 0 -6 5 -5 12 2 16 16 35 15 42 -3
3 -9 -7 -29 -24 -49 -17 -18 -30 -36 -30 -40 0 -3 17 -5 38 -5 l37 2 -34 6
-33 6 22 20 c33 30 43 54 29 71 -12 15 -41 19 -52 7z"/>
<path d="M13567 7393 c32 -4 33 -5 19 -31 -7 -15 -16 -40 -19 -57 -6 -28 -6
-29 4 -5 6 14 19 42 29 63 l18 37 -41 -2 c-37 -1 -38 -2 -10 -5z"/>
<path d="M13780 7381 c0 -14 -5 -18 -19 -14 -27 7 -47 -31 -32 -63 7 -17 18
-23 36 -22 24 2 25 6 25 60 0 32 -2 58 -5 58 -3 0 -5 -9 -5 -19z m-5 -56 c0
-33 -28 -47 -39 -19 -10 25 3 56 22 52 11 -2 17 -13 17 -33z"/>
<path d="M13990 7380 c-15 -28 5 -64 31 -57 12 3 19 0 19 -9 0 -20 -30 -30
-41 -13 -6 10 -9 11 -9 1 0 -19 28 -26 45 -12 8 7 15 29 15 49 0 57 -38 82
-60 41z m45 -20 c0 -28 -29 -40 -38 -15 -9 22 3 46 22 43 10 -2 16 -13 16 -28z"/>
<path d="M14082 7388 c-17 -17 -15 -83 4 -99 31 -26 70 25 43 57 -7 9 -21 13
-31 11 -11 -3 -18 0 -18 9 0 21 28 28 48 13 15 -13 16 -12 3 4 -16 20 -32 22
-49 5z m43 -68 c0 -16 -6 -26 -18 -28 -19 -4 -32 20 -23 44 9 25 41 13 41 -16z"/>
<path d="M14172 7388 c-17 -17 -15 -83 4 -99 31 -26 70 25 43 57 -7 9 -21 13
-31 11 -11 -3 -18 0 -18 9 0 21 28 28 48 13 15 -13 16 -12 3 4 -16 20 -32 22
-49 5z m43 -68 c0 -16 -6 -26 -18 -28 -19 -4 -32 20 -23 44 9 25 41 13 41 -16z"/>
<path d="M14257 7393 c-4 -3 -7 -11 -7 -17 0 -6 5 -5 12 2 16 16 35 15 42 -3
3 -9 -7 -29 -24 -49 -17 -18 -30 -36 -30 -40 0 -3 17 -5 38 -5 l37 2 -34 6
-33 6 22 20 c33 30 43 54 29 71 -12 15 -41 19 -52 7z"/>
<path d="M14390 7386 c0 -8 -10 -16 -22 -18 -20 -3 -23 -9 -23 -43 0 -38 2
-40 33 -43 l32 -3 0 60 c0 34 -4 61 -10 61 -5 0 -10 -6 -10 -14z m2 -43 c7
-30 -4 -54 -21 -51 -29 6 -27 68 3 68 8 0 16 -8 18 -17z"/>
<path d="M14452 7393 c26 -4 26 -5 12 -38 -8 -19 -14 -45 -13 -57 1 -19 2 -17
8 7 4 17 15 45 25 63 l17 32 -38 -1 c-29 -2 -32 -3 -11 -6z"/>
<path d="M14616 7384 c-12 -31 -7 -41 19 -36 22 4 25 1 25 -22 0 -30 -27 -46
-42 -25 -8 12 -9 11 -5 -1 6 -24 44 -24 57 -1 14 27 -3 61 -31 61 -28 0 -19
23 12 31 l24 7 -26 1 c-16 1 -29 -5 -33 -15z"/>
<path d="M14701 7381 c-24 -45 -3 -107 35 -99 28 5 27 71 -1 76 -18 2 -18 2
-2 -8 21 -14 22 -49 2 -57 -21 -8 -28 1 -31 41 -4 43 18 65 43 45 14 -12 16
-12 11 1 -7 23 -45 24 -57 1z"/>
<path d="M14790 7380 c-15 -28 5 -64 31 -57 12 3 19 0 19 -9 0 -20 -30 -30
-41 -13 -6 10 -9 11 -9 1 0 -19 28 -26 45 -12 8 7 15 29 15 49 0 57 -38 82
-60 41z m45 -20 c0 -28 -29 -40 -38 -15 -9 22 3 46 22 43 10 -2 16 -13 16 -28z"/>
<path d="M14970 7386 c0 -8 -3 -21 -6 -30 -4 -11 1 -15 23 -13 22 2 29 -3 31
-21 4 -27 -21 -39 -46 -21 -16 12 -15 11 1 -6 14 -16 21 -17 35 -9 25 16 22
57 -5 69 -13 5 -23 15 -23 22 0 6 10 14 23 16 19 4 18 4 -5 6 -18 1 -28 -4
-28 -13z"/>
<path d="M15062 7388 c-26 -26 0 -77 33 -64 17 6 19 -2 5 -24 -8 -13 -13 -13
-32 -1 -22 13 -22 13 -5 -5 25 -27 51 -8 55 40 5 54 -26 84 -56 54z m43 -28
c0 -16 -6 -26 -18 -28 -19 -4 -32 20 -23 44 9 25 41 13 41 -16z"/>
<path d="M15162 7361 c-27 -48 -27 -51 -2 -51 11 0 20 -7 20 -15 0 -20 18 -19
22 2 5 26 -3 103 -11 103 -4 0 -17 -17 -29 -39z m18 -16 c0 -15 -6 -25 -15
-25 -12 0 -13 4 -3 25 6 14 13 25 15 25 1 0 3 -11 3 -25z"/>
<path d="M15236 7383 c-6 -14 -5 -16 5 -5 7 6 19 12 26 12 17 0 17 -40 1 -40
-7 0 -5 -5 5 -11 9 -5 17 -17 17 -25 0 -21 -27 -29 -47 -13 -14 12 -16 12 -11
-1 2 -8 14 -16 25 -18 26 -4 48 22 38 45 -4 10 -8 29 -9 43 -1 31 -40 41 -50
13z"/>
<path d="M15326 7383 c-6 -14 -5 -16 5 -5 7 6 19 12 26 12 17 0 17 -40 1 -40
-7 0 -5 -5 5 -11 9 -5 17 -17 17 -25 0 -21 -27 -29 -47 -13 -14 12 -16 12 -11
-1 2 -8 14 -16 25 -18 26 -4 48 22 38 45 -4 10 -8 29 -9 43 -1 31 -40 41 -50
13z"/>
<path d="M15417 7394 c-16 -16 -6 -44 18 -50 18 -4 25 -13 25 -30 0 -36 -37
-33 -43 4 -5 26 -5 26 -3 -3 1 -23 6 -31 23 -33 21 -3 49 29 36 42 -3 3 -6 20
-7 38 -1 25 -6 34 -21 36 -12 2 -24 0 -28 -4z m39 -15 c10 -17 -13 -36 -27
-22 -12 12 -4 33 11 33 5 0 12 -5 16 -11z"/>
<path d="M15507 7394 c-4 -4 -7 -12 -7 -18 0 -6 4 -5 9 3 11 17 41 7 41 -13 0
-9 -14 -31 -31 -51 l-31 -35 38 1 c32 2 34 3 10 6 l-28 5 27 28 c31 33 31 73
0 78 -12 2 -24 0 -28 -4z"/>
<path d="M15590 7380 c-15 -28 5 -64 31 -57 12 3 19 0 19 -9 0 -20 -30 -30
-41 -13 -6 10 -9 11 -9 1 0 -19 28 -26 45 -12 8 7 15 29 15 49 0 57 -38 82
-60 41z m45 -20 c0 -28 -29 -40 -38 -15 -9 22 3 46 22 43 10 -2 16 -13 16 -28z"/>
<path d="M15769 7383 c-13 -16 -12 -17 4 -4 9 7 17 15 17 17 0 8 -8 3 -21 -13z"/>
<path d="M12854 7374 c-15 -13 -16 -15 -2 -10 14 4 18 -3 21 -42 3 -46 3 -46
5 11 1 31 1 57 -1 57 -2 0 -12 -7 -23 -16z"/>
<path d="M12669 7349 c-8 -16 -8 -28 0 -45 10 -23 44 -33 55 -15 3 4 -5 6 -18
4 -18 -4 -25 0 -28 14 -8 35 3 55 28 50 13 -2 21 0 18 4 -10 17 -43 9 -55 -12z"/>
<path d="M13200 7356 c-15 -20 -9 -56 12 -70 14 -8 21 -6 35 9 16 17 17 18 1
6 -19 -14 -48 -9 -48 9 0 5 14 10 30 10 31 0 39 17 18 38 -16 16 -33 15 -48
-2z m48 -13 c2 -8 -6 -13 -22 -13 -25 0 -33 10 -19 24 10 10 36 3 41 -11z"/>
<path d="M13289 7353 c-13 -16 -12 -17 3 -4 10 7 26 10 35 6 15 -5 12 -9 -15
-21 -45 -18 -41 -49 6 -50 33 -1 33 0 30 40 -2 33 -7 42 -24 44 -11 2 -27 -5
-35 -15z m47 -39 c-3 -9 -6 -18 -6 -20 0 -2 -9 -4 -20 -4 -25 0 -27 27 -2 33
31 8 34 7 28 -9z"/>
<path d="M13645 7360 c-4 -6 -4 -14 -1 -17 3 -4 6 -1 6 5 0 7 9 12 20 12 27 0
25 -17 -2 -26 -49 -15 -44 -54 6 -52 31 1 32 2 26 42 -4 32 -10 42 -27 44 -11
2 -24 -2 -28 -8z m45 -45 c0 -19 -24 -30 -41 -19 -9 5 -7 11 6 21 24 17 35 17
35 -2z"/>
<path d="M13825 7360 c-4 -6 -4 -14 -1 -17 3 -4 6 -1 6 5 0 7 9 12 20 12 30 0
24 -17 -11 -29 -42 -15 -36 -46 9 -47 33 -1 33 0 30 40 -2 33 -7 42 -25 44
-11 2 -24 -2 -28 -8z m45 -45 c0 -19 -24 -30 -41 -19 -9 5 -7 11 6 21 24 17
35 17 35 -2z"/>
<path d="M13908 7344 c-9 -18 -9 -30 -1 -42 12 -20 41 -28 55 -14 6 6 1 8 -15
5 -27 -5 -42 17 -31 49 4 15 13 19 30 15 13 -2 21 0 18 4 -11 19 -45 8 -56
-17z"/>
<path d="M14519 7349 c-16 -31 4 -71 33 -67 12 2 23 10 25 18 4 12 3 13 -5 1
-6 -8 -17 -11 -26 -8 -27 10 -18 27 14 27 33 0 35 3 20 31 -14 25 -46 24 -61
-2z m55 -4 c4 -11 -1 -15 -19 -15 -24 0 -32 10 -18 23 11 12 31 8 37 -8z"/>
<path d="M14885 7360 c-4 -6 -4 -14 -1 -17 3 -4 6 -1 6 5 0 7 9 12 20 12 30 0
24 -17 -11 -29 -42 -15 -36 -46 9 -47 33 -1 33 0 30 40 -2 33 -7 42 -25 44
-11 2 -24 -2 -28 -8z m45 -45 c0 -19 -24 -30 -41 -19 -9 5 -7 11 6 21 24 17
35 17 35 -2z"/>
<path d="M15685 7360 c-4 -6 -4 -14 -1 -17 3 -4 6 -1 6 5 0 7 9 12 20 12 30 0
24 -17 -11 -29 -42 -15 -36 -46 9 -47 33 -1 33 0 30 40 -2 33 -7 42 -25 44
-11 2 -24 -2 -28 -8z m45 -45 c0 -19 -24 -30 -41 -19 -9 5 -7 11 6 21 24 17
35 17 35 -2z"/>
<path d="M12490 7351 c0 -5 12 -9 27 -8 22 2 29 -3 31 -21 4 -27 -22 -40 -45
-21 -14 12 -16 12 -11 -1 7 -21 48 -19 62 3 8 12 8 22 0 35 -12 18 -64 30 -64
13z"/>
<path d="M15770 7300 c-8 -15 -8 -20 3 -20 7 0 13 9 14 20 1 11 0 20 -2 20 -2
0 -9 -9 -15 -20z"/>
<path d="M7692 7225 c0 -11 3 -29 8 -40 11 -25 11 1 0 35 -6 20 -8 21 -8 5z"/>
<path d="M7740 7231 c0 -5 5 -13 10 -16 6 -3 10 -2 10 4 0 5 -4 13 -10 16 -5
3 -10 2 -10 -4z"/>
<path d="M7796 7225 c-3 -9 -6 -24 -5 -33 0 -9 5 -4 10 12 9 32 6 48 -5 21z"/>
<path d="M8020 7190 c0 -29 3 -51 6 -47 8 7 7 87 0 95 -3 3 -6 -19 -6 -48z"/>
<path d="M8063 7219 l-21 -22 21 -28 c11 -16 25 -29 31 -29 5 0 0 10 -12 23
-26 28 -27 35 -5 59 23 25 12 23 -14 -3z"/>
<path d="M7824 7206 c-3 -8 -4 -25 -2 -38 2 -17 9 -23 28 -23 22 0 25 4 25 35
0 29 -4 36 -23 38 -13 2 -24 -3 -28 -12z m41 -26 c0 -27 -22 -39 -31 -16 -8
22 3 49 19 43 6 -2 12 -14 12 -27z"/>
<path d="M7904 7206 c-11 -28 0 -61 20 -61 27 0 44 30 30 53 -15 22 -43 27
-50 8z m41 -26 c0 -16 -6 -26 -17 -28 -14 -3 -18 3 -18 28 0 25 4 31 18 28 11
-2 17 -12 17 -28z"/>
<path d="M8114 7206 c-16 -42 20 -86 48 -58 6 6 0 8 -16 5 -19 -4 -26 -1 -26
11 0 11 9 16 26 16 20 0 25 4 20 16 -3 9 -6 18 -6 20 0 11 -41 2 -46 -10z m41
-6 c3 -5 -3 -10 -14 -10 -12 0 -21 5 -21 10 0 6 6 10 14 10 8 0 18 -4 21 -10z"/>
<path d="M8187 7200 c4 -14 8 -40 8 -57 0 -18 1 -33 3 -33 8 0 22 54 15 59 -5
3 -14 17 -21 31 l-12 25 7 -25z"/>
<path d="M7716 7164 c-4 -9 -4 -19 -1 -22 2 -3 7 3 11 12 4 9 4 19 1 22 -2 3
-7 -3 -11 -12z"/>
<path d="M7776 7161 c-4 -7 -5 -15 -2 -18 9 -9 19 4 14 18 -4 11 -6 11 -12 0z"/>
<path d="M7702 6438 c-19 -19 -15 -27 24 -43 19 -8 33 -19 29 -25 -8 -14 -38
-13 -53 2 -9 9 -12 9 -12 0 0 -17 48 -26 65 -12 20 16 9 37 -27 49 -16 6 -27
15 -23 21 8 13 42 13 48 0 3 -6 4 -5 3 2 -3 18 -38 22 -54 6z"/>
<path d="M8058 6440 c-5 -17 3 -90 11 -90 3 0 5 21 4 46 -1 46 -8 65 -15 44z"/>
<path d="M7790 6415 c-15 -18 -10 -45 12 -59 12 -7 21 -7 28 0 8 8 4 10 -11
10 -12 -1 -24 5 -26 12 -3 7 6 12 24 13 l28 1 -30 8 c-24 5 -27 8 -13 14 9 4
22 4 29 0 8 -4 9 -3 5 4 -10 16 -31 15 -46 -3z"/>
<path d="M7864 6416 c-16 -42 20 -86 48 -58 6 6 0 8 -16 5 -24 -5 -26 -2 -26
27 0 27 3 32 20 27 11 -3 20 -1 20 4 0 15 -40 10 -46 -5z"/>
<path d="M7931 6385 c2 -33 3 -35 6 -10 2 17 11 35 20 42 13 10 13 12 -6 10
-18 -1 -21 -7 -20 -42z"/>
<path d="M7984 6416 c-16 -42 20 -86 48 -58 6 6 0 8 -16 5 -19 -4 -26 -1 -26
11 0 11 9 16 26 16 20 0 25 4 20 16 -3 9 -6 18 -6 20 0 11 -41 2 -46 -10z m41
-6 c3 -5 -3 -10 -14 -10 -12 0 -21 5 -21 10 0 6 6 10 14 10 8 0 18 -4 21 -10z"/>
<path d="M7696 5454 c-13 -13 -16 -43 -16 -174 0 -131 3 -161 16 -174 14 -14
91 -16 699 -16 608 0 685 2 699 16 24 23 24 325 0 348 -14 14 -91 16 -699 16
-608 0 -685 -2 -699 -16z m169 -148 l11 -38 16 41 c25 64 48 55 48 -19 0 -47
-3 -60 -15 -60 -10 0 -15 11 -16 33 l-1 32 -10 -32 c-14 -44 -34 -42 -46 5
l-10 37 -1 -37 c-2 -64 -21 -42 -21 23 0 52 2 60 17 57 10 -2 22 -19 28 -42z
m285 12 c1 -27 2 -30 11 -15 5 9 17 17 27 17 15 0 15 -1 0 -17 -16 -15 -16
-18 3 -45 16 -22 17 -28 6 -28 -8 0 -22 10 -30 23 l-16 22 0 -22 c-1 -13 -5
-23 -11 -23 -6 0 -10 27 -10 60 0 33 4 60 10 60 6 0 10 -15 10 -32z m350 17
c0 -8 9 -15 20 -15 28 0 46 -40 31 -69 -9 -15 -21 -21 -46 -21 -34 0 -35 1
-35 40 0 22 -4 40 -10 40 -5 0 -10 -18 -10 -40 0 -29 -4 -40 -15 -40 -11 0
-15 12 -15 45 0 41 2 45 25 45 16 0 25 6 25 15 0 8 7 15 15 15 8 0 15 -7 15
-15z m270 -45 l0 -60 -35 0 c-28 0 -38 5 -45 23 l-9 22 0 -22 c-1 -14 -7 -23
-16 -23 -11 0 -15 11 -15 40 0 40 -13 53 -24 24 -3 -9 -6 -27 -6 -40 0 -13 -4
-24 -10 -24 -5 0 -10 20 -10 45 0 45 0 45 34 45 27 0 36 -5 42 -22 l7 -23 8
23 c5 13 17 22 29 22 11 0 20 7 20 15 0 8 7 15 15 15 12 0 15 -13 15 -60z
m-742 -18 l3 -43 -38 3 c-30 2 -39 8 -41 24 -2 16 4 23 22 28 15 3 26 11 26
16 0 14 -13 13 -28 -2 -14 -14 -27 -5 -17 12 4 6 21 10 38 8 30 -3 32 -6 35
-46z m90 0 l3 -43 -38 3 c-30 2 -39 8 -41 24 -2 16 4 23 22 28 15 3 26 11 26
16 0 14 -13 13 -28 -2 -14 -14 -27 -5 -17 12 4 6 21 10 38 8 30 -3 32 -6 35
-46z m160 21 l10 -28 7 28 c4 15 13 27 20 27 11 0 11 -9 -2 -45 -8 -25 -21
-45 -28 -45 -7 0 -20 20 -28 45 -13 37 -13 45 -2 45 7 0 18 -12 23 -27z m116
21 c9 -3 16 -15 16 -25 0 -14 -7 -19 -30 -19 -30 0 -40 -13 -20 -25 6 -4 18
-1 26 6 16 13 30 6 19 -10 -8 -15 -48 -14 -63 1 -24 24 -8 78 24 78 7 0 19 -3
28 -6z m196 -39 c0 -25 -4 -45 -10 -45 -5 0 -10 20 -10 45 0 25 5 45 10 45 6
0 10 -20 10 -45z m210 0 c0 -25 -4 -45 -10 -45 -5 0 -10 20 -10 45 0 25 5 45
10 45 6 0 10 -20 10 -45z m88 -2 c2 -34 0 -43 -12 -43 -12 0 -16 10 -16 40 0
22 -4 40 -10 40 -5 0 -10 -18 -10 -40 0 -29 -4 -40 -15 -40 -11 0 -15 12 -15
46 l0 45 38 -3 c36 -3 37 -4 40 -45z m92 -1 c0 -26 -5 -53 -12 -60 -15 -15
-55 -16 -63 -2 -4 7 2 9 19 4 16 -4 26 -2 26 4 0 6 -10 12 -22 14 -17 2 -24
11 -26 31 -5 45 4 57 43 57 l35 0 0 -48z"/>
<path d="M8504 5297 c-7 -20 -2 -47 11 -50 14 -3 19 43 6 56 -7 7 -12 6 -17
-6z"/>
<path d="M8714 5297 c-7 -20 -2 -47 11 -50 14 -3 19 43 6 56 -7 7 -12 6 -17
-6z"/>
<path d="M7970 5254 c0 -9 5 -14 12 -12 18 6 21 28 4 28 -9 0 -16 -7 -16 -16z"/>
<path d="M8060 5254 c0 -9 5 -14 12 -12 18 6 21 28 4 28 -9 0 -16 -7 -16 -16z"/>
<path d="M8357 5295 c-5 -10 0 -15 14 -15 12 0 19 5 17 12 -6 18 -25 20 -31 3z"/>
<path d="M8924 5297 c-7 -20 -2 -47 11 -50 14 -3 19 43 6 56 -7 7 -12 6 -17
-6z"/>
<path d="M3416 2582 c-13 -22 -53 -142 -46 -142 4 0 12 12 18 26 15 32 62 31
77 -3 5 -13 14 -23 18 -23 5 0 7 4 5 8 -1 4 -14 38 -27 75 -24 64 -34 77 -45
59z m28 -59 c6 -20 4 -23 -19 -23 -22 0 -26 3 -20 18 4 9 10 25 13 36 5 20 14
11 26 -31z"/>
<path d="M4371 2520 c-1 -71 0 -76 21 -77 37 -3 58 15 58 51 0 38 -21 61 -49
53 -15 -4 -21 1 -24 22 -2 14 -5 -8 -6 -49z m57 8 c26 -26 1 -85 -31 -72 -28
10 -17 84 13 84 3 0 11 -5 18 -12z"/>
<path d="M4700 2565 c0 -22 -3 -25 -24 -19 -19 4 -28 0 -42 -21 -16 -25 -16
-30 -3 -54 11 -19 23 -26 47 -26 l32 -1 0 73 c0 40 -2 73 -5 73 -3 0 -5 -11
-5 -25z m-12 -37 c30 -30 -1 -94 -33 -68 -25 20 -13 80 15 80 3 0 11 -5 18
-12z"/>
<path d="M4740 2580 c0 -5 5 -10 10 -10 6 0 10 5 10 10 0 6 -4 10 -10 10 -5 0
-10 -4 -10 -10z"/>
<path d="M5024 2555 c-7 -19 -14 -46 -14 -60 0 -25 25 -95 34 -95 2 0 -2 20
-10 45 -13 45 -10 92 8 128 5 9 6 17 3 17 -3 0 -13 -16 -21 -35z"/>
<path d="M5316 2553 c7 -21 13 -47 13 -58 0 -11 -6 -37 -13 -57 -8 -21 -12
-38 -10 -38 11 0 34 64 34 95 0 31 -23 95 -34 95 -2 0 2 -17 10 -37z"/>
<path d="M5420 2515 l0 -75 39 0 c58 0 91 41 56 70 -11 9 -12 16 -3 30 18 28
-6 50 -53 50 l-39 0 0 -75z m64 59 c9 -3 16 -15 16 -25 0 -14 -7 -19 -30 -19
-25 0 -30 4 -30 25 0 25 13 31 44 19z m17 -70 c18 -21 0 -48 -35 -52 -24 -3
-26 0 -26 32 0 31 3 36 24 36 13 0 29 -7 37 -16z"/>
<path d="M5673 2515 c0 -44 2 -61 4 -37 2 23 2 59 0 80 -2 20 -4 1 -4 -43z"/>
<path d="M5783 2515 c0 -44 2 -69 4 -55 5 26 20 50 32 50 3 0 16 -16 29 -35
12 -19 27 -35 33 -35 6 0 0 15 -13 33 -39 52 -39 54 -12 86 14 17 21 31 16 31
-5 0 -22 -16 -36 -35 -15 -19 -31 -35 -36 -35 -5 0 -11 17 -13 38 -2 20 -4 1
-4 -43z"/>
<path d="M6363 2515 c0 -44 2 -61 4 -37 2 23 2 59 0 80 -2 20 -4 1 -4 -43z"/>
<path d="M6400 2580 c0 -5 5 -10 10 -10 6 0 10 5 10 10 0 6 -4 10 -10 10 -5 0
-10 -4 -10 -10z"/>
<path d="M3608 2563 c-2 -10 -1 -40 2 -68 4 -40 9 -50 25 -53 15 -2 16 -1 7 6
-9 6 -13 26 -12 53 3 65 1 79 -9 79 -5 0 -11 -8 -13 -17z"/>
<path d="M3514 2525 c-14 -21 -15 -31 -6 -51 20 -41 67 -44 80 -3 4 10 -1 9
-15 -4 -11 -10 -27 -15 -37 -11 -21 8 -21 57 0 75 14 11 18 11 29 -4 17 -24
28 -21 15 3 -15 28 -46 25 -66 -5z"/>
<path d="M3673 2495 c0 -33 2 -45 4 -27 2 18 2 45 0 60 -2 15 -4 0 -4 -33z"/>
<path d="M3714 2525 c-14 -21 -15 -31 -6 -51 20 -41 67 -44 80 -3 3 9 -2 8
-16 -5 -18 -15 -24 -16 -37 -6 -24 20 -18 29 25 32 39 3 39 4 27 28 -18 35
-52 38 -73 5z m54 3 c19 -19 14 -28 -18 -28 -16 0 -30 4 -30 8 0 9 21 32 30
32 3 0 11 -5 18 -12z"/>
<path d="M3827 2503 c22 -66 29 -71 46 -31 24 58 30 81 19 74 -6 -3 -13 -20
-17 -36 -10 -45 -23 -45 -36 0 -7 22 -16 40 -20 40 -4 0 -1 -21 8 -47z"/>
<path d="M3930 2535 c-39 -47 16 -125 58 -83 20 20 13 32 -8 13 -16 -15 -22
-15 -35 -5 -25 21 -17 30 25 30 44 0 47 5 24 38 -18 25 -46 29 -64 7z m44 -1
c28 -11 18 -34 -14 -34 -32 0 -37 9 -18 28 14 14 12 14 32 6z"/>
<path d="M4085 2530 c18 -55 37 -92 44 -84 13 14 41 104 32 104 -4 0 -13 -18
-20 -40 -13 -45 -26 -45 -36 0 -4 16 -11 33 -17 36 -6 4 -8 -2 -3 -16z"/>
<path d="M4194 2525 c-14 -21 -15 -31 -6 -51 20 -41 67 -44 80 -3 3 9 -2 8
-16 -5 -18 -15 -24 -16 -37 -6 -24 20 -18 29 25 32 39 3 39 4 27 28 -18 35
-52 38 -73 5z m54 3 c19 -19 14 -28 -18 -28 -16 0 -30 4 -30 8 0 9 21 32 30
32 3 0 11 -5 18 -12z"/>
<path d="M4302 2490 c1 -49 2 -51 5 -13 3 30 11 47 26 58 22 15 22 15 -6 13
-26 -2 -27 -4 -25 -58z"/>
<path d="M4483 2495 c0 -33 2 -45 4 -27 2 18 2 45 0 60 -2 15 -4 0 -4 -33z"/>
<path d="M4521 2490 l2 -55 6 43 c4 23 13 48 19 54 18 18 40 -9 45 -55 3 -39
4 -38 5 11 2 54 2 54 -50 56 -27 2 -28 1 -27 -54z"/>
<path d="M4740 2495 c0 -30 5 -55 10 -55 6 0 10 25 10 55 0 30 -4 55 -10 55
-5 0 -10 -25 -10 -55z"/>
<path d="M4792 2490 c1 -49 2 -50 5 -13 2 23 11 47 19 53 22 19 42 -4 47 -53
l4 -42 1 46 c2 53 -10 68 -50 66 -27 -2 -28 -4 -26 -57z"/>
<path d="M4905 2534 c-35 -35 -4 -101 41 -90 27 7 31 -5 8 -25 -12 -10 -20
-10 -35 -1 -12 8 -19 8 -19 2 0 -17 30 -23 56 -12 22 11 24 18 24 74 0 63 0
63 -30 65 -16 1 -36 -5 -45 -13z m55 -13 c13 -25 13 -33 -3 -55 -20 -27 -47
-10 -47 29 0 30 9 42 32 44 4 1 12 -8 18 -18z"/>
<path d="M5086 2534 c-9 -8 -16 -26 -16 -39 0 -44 50 -71 78 -43 19 19 14 33
-6 15 -24 -22 -39 -21 -52 3 -10 18 -8 20 30 20 33 0 40 3 40 20 0 18 -26 40
-49 40 -5 0 -17 -7 -25 -16z m53 -7 c6 -8 8 -17 4 -20 -12 -12 -53 -7 -53 6 0
28 30 37 49 14z"/>
<path d="M5192 2490 c1 -49 2 -50 5 -13 5 49 25 72 47 53 8 -6 17 -30 19 -53
l4 -42 1 46 c2 53 -10 68 -50 66 -27 -2 -28 -4 -26 -57z"/>
<path d="M5566 2534 c-29 -28 -11 -94 25 -94 29 0 49 22 49 55 0 49 -42 71
-74 39z m52 -6 c25 -25 8 -78 -25 -78 -22 0 -37 44 -24 69 13 24 31 27 49 9z"/>
<path d="M5913 2524 c-15 -24 -15 -29 -2 -53 18 -32 45 -38 70 -15 24 22 24
56 1 77 -26 24 -49 21 -69 -9z m51 10 c22 -8 22 -70 0 -78 -35 -13 -60 44 -32
72 14 14 12 14 32 6z"/>
<path d="M6021 2470 c1 -41 4 -63 6 -47 4 23 8 26 28 21 18 -4 27 0 41 21 16
25 16 30 3 54 -11 19 -23 26 -47 26 l-32 1 1 -76z m53 64 c23 -9 21 -70 -1
-78 -11 -5 -22 -1 -30 10 -16 22 -16 30 -3 55 12 21 12 21 34 13z"/>
<path d="M6130 2475 c0 -43 4 -75 10 -75 6 0 10 11 10 24 0 19 4 23 19 19 37
-9 65 49 42 86 -5 8 -25 16 -45 17 l-36 3 0 -74z m71 41 c14 -29 -4 -69 -29
-64 -21 4 -29 67 -10 79 21 13 28 11 39 -15z"/>
<path d="M6258 2539 c-26 -15 -24 -75 2 -89 24 -13 56 -5 64 15 3 8 1 15 -3
15 -5 0 -11 -7 -15 -15 -8 -21 -33 -19 -46 5 -10 18 -8 20 30 20 44 0 53 16
24 44 -18 18 -32 20 -56 5z m50 -22 c3 -12 -3 -17 -22 -17 -25 0 -35 18 -19
34 12 12 38 2 41 -17z"/>
<path d="M6400 2495 c0 -30 5 -55 10 -55 6 0 10 25 10 55 0 30 -4 55 -10 55
-5 0 -10 -25 -10 -55z"/>
<path d="M6440 2494 c0 -67 18 -72 22 -6 3 39 6 47 23 47 17 0 20 -8 23 -47 3
-50 23 -69 21 -20 -2 61 -12 77 -52 79 l-37 1 0 -54z"/>
<path d="M6558 2524 c-18 -38 0 -79 35 -79 16 1 27 -5 27 -12 0 -19 -29 -28
-43 -14 -17 17 -31 13 -17 -4 16 -19 44 -19 64 1 11 10 16 34 16 73 l0 58 -35
1 c-29 1 -38 -3 -47 -24z m46 10 c23 -9 21 -70 -1 -78 -11 -5 -22 -1 -30 10
-16 22 -16 30 -3 55 12 21 12 21 34 13z"/>
<path d="M5700 2490 c0 -5 11 -10 25 -10 14 0 25 5 25 10 0 6 -11 10 -25 10
-14 0 -25 -4 -25 -10z"/>
<path d="M3467 1952 c-23 -25 -22 -65 2 -86 26 -24 62 -17 81 17 13 24 13 30
0 55 -19 33 -59 41 -83 14z m67 -24 c15 -25 -4 -53 -35 -53 -25 0 -37 30 -25
61 8 20 46 14 60 -8z"/>
<path d="M3900 1910 c0 -33 4 -60 10 -60 6 0 10 16 10 35 0 24 5 35 15 35 10
0 15 -11 15 -35 0 -19 5 -35 11 -35 6 0 9 17 7 43 -3 36 -6 42 -25 41 -16 0
-23 5 -23 18 0 10 -4 18 -10 18 -6 0 -10 -27 -10 -60z"/>
<path d="M4060 1960 c0 -5 5 -10 10 -10 6 0 10 5 10 10 0 6 -4 10 -10 10 -5 0
-10 -4 -10 -10z"/>
<path d="M4100 1960 c0 -5 5 -10 10 -10 6 0 10 5 10 10 0 6 -4 10 -10 10 -5 0
-10 -4 -10 -10z"/>
<path d="M4240 1960 c0 -5 5 -10 10 -10 6 0 10 5 10 10 0 6 -4 10 -10 10 -5 0
-10 -4 -10 -10z"/>
<path d="M8197 1952 c-31 -34 -12 -102 28 -102 24 0 45 12 45 26 0 11 -4 12
-19 3 -30 -20 -53 -4 -49 33 2 25 8 34 26 36 13 2 22 -2 22 -9 0 -10 3 -10 12
-1 10 10 10 15 -2 22 -23 15 -45 12 -63 -8z"/>
<path d="M8300 1910 c0 -33 4 -60 10 -60 6 0 10 27 10 60 0 33 -4 60 -10 60
-6 0 -10 -27 -10 -60z"/>
<path d="M8340 1960 c0 -5 5 -10 10 -10 6 0 10 5 10 10 0 6 -4 10 -10 10 -5 0
-10 -4 -10 -10z"/>
<path d="M8670 1910 c0 -33 4 -60 10 -60 6 0 10 27 10 60 0 33 -4 60 -10 60
-6 0 -10 -27 -10 -60z"/>
<path d="M8770 1951 c0 -14 -5 -18 -19 -14 -27 7 -47 -31 -33 -63 8 -17 19
-22 41 -22 31 1 31 1 31 60 0 32 -4 58 -10 58 -5 0 -10 -9 -10 -19z m0 -56 c0
-25 -23 -35 -35 -15 -10 16 2 40 20 40 9 0 15 -9 15 -25z"/>
<path d="M9872 1910 c11 -33 25 -60 32 -60 13 0 51 108 42 118 -8 8 -11 3 -28
-48 l-16 -45 -12 48 c-7 26 -18 47 -26 47 -10 0 -8 -14 8 -60z"/>
<path d="M10240 1960 c0 -5 5 -10 10 -10 6 0 10 5 10 10 0 6 -4 10 -10 10 -5
0 -10 -4 -10 -10z"/>
<path d="M10280 1960 c0 -5 5 -10 10 -10 6 0 10 5 10 10 0 6 -4 10 -10 10 -5
0 -10 -4 -10 -10z"/>
<path d="M10380 1951 c0 -14 -5 -18 -19 -14 -27 7 -47 -31 -33 -63 8 -17 19
-22 41 -22 31 1 31 1 31 60 0 32 -4 58 -10 58 -5 0 -10 -9 -10 -19z m0 -56 c0
-25 -23 -35 -35 -15 -10 16 2 40 20 40 9 0 15 -9 15 -25z"/>
<path d="M8570 1942 c-10 -12 -11 -17 -2 -20 7 -2 12 -19 12 -38 0 -24 5 -34
15 -34 17 0 20 16 5 25 -14 9 -12 43 2 47 10 4 9 8 -2 20 -14 13 -17 13 -30 0z"/>
<path d="M3580 1894 c0 -24 5 -44 10 -44 6 0 10 16 10 36 0 45 24 42 28 -4 4
-44 22 -40 22 4 0 45 24 42 28 -4 4 -42 22 -41 22 1 0 47 -9 53 -67 54 l-53 0
0 -43z"/>
<path d="M3727 1934 c-14 -15 -6 -35 18 -44 14 -5 25 -12 25 -16 0 -3 -11 -3
-25 0 -25 6 -35 -7 -14 -19 16 -11 59 4 59 20 0 8 -12 21 -27 30 -25 14 -25
15 -4 9 17 -4 22 -2 19 7 -5 15 -40 24 -51 13z"/>
<path d="M3811 1918 c-18 -48 28 -90 58 -54 11 13 8 15 -16 13 -22 -2 -28 2
-28 18 0 16 6 20 28 18 24 -2 27 0 17 13 -18 21 -50 17 -59 -8z"/>
<path d="M4000 1895 c0 -25 5 -45 10 -45 6 0 10 14 10 31 0 19 7 37 18 45 15
12 14 13 -10 14 -26 0 -28 -2 -28 -45z"/>
<path d="M4060 1895 c0 -25 5 -45 10 -45 6 0 10 20 10 45 0 25 -4 45 -10 45
-5 0 -10 -20 -10 -45z"/>
<path d="M4098 1883 c-4 -65 -4 -68 11 -58 13 8 15 115 2 115 -5 0 -11 -26
-13 -57z"/>
<path d="M4146 1918 c25 -82 33 -85 55 -23 19 51 6 62 -14 13 l-14 -33 -7 33
c-4 17 -12 32 -17 32 -6 0 -7 -10 -3 -22z"/>
<path d="M4240 1895 c0 -25 5 -45 10 -45 6 0 10 20 10 45 0 25 -4 45 -10 45
-5 0 -10 -20 -10 -45z"/>
<path d="M4280 1894 c0 -51 17 -60 22 -11 2 20 8 32 18 32 10 0 16 -12 18 -32
4 -43 22 -42 22 1 0 39 -14 54 -52 54 -26 0 -28 -3 -28 -44z"/>
<path d="M4379 1914 c-5 -14 -6 -30 -3 -36 4 -6 7 -20 8 -32 1 -16 7 -21 31
-21 29 0 30 1 33 56 l3 56 -31 1 c-24 1 -33 -5 -41 -24z m51 -19 c0 -25 -23
-35 -35 -15 -10 16 2 40 20 40 9 0 15 -9 15 -25z m0 -45 c0 -5 -8 -10 -17 -10
-15 0 -16 2 -3 10 19 12 20 12 20 0z"/>
<path d="M8340 1895 c0 -25 5 -45 10 -45 6 0 10 20 10 45 0 25 -4 45 -10 45
-5 0 -10 -20 -10 -45z"/>
<path d="M8392 1928 c-16 -16 -15 -53 3 -68 17 -14 47 -10 53 9 3 9 -1 11 -16
7 -11 -4 -23 -2 -27 4 -4 6 6 10 24 10 27 0 30 2 22 23 -9 25 -40 34 -59 15z
m35 -14 c-3 -3 -12 -4 -19 -1 -8 3 -5 6 6 6 11 1 17 -2 13 -5z"/>
<path d="M8480 1894 c0 -24 5 -44 10 -44 6 0 10 16 10 35 0 24 5 35 15 35 10
0 15 -11 15 -35 0 -19 5 -35 11 -35 6 0 9 17 7 43 -3 40 -5 42 -35 44 -33 1
-33 1 -33 -43z"/>
<path d="M9972 1931 c-8 -5 -12 -22 -10 -42 2 -26 8 -35 24 -37 11 -2 27 4 34
13 12 14 11 16 -13 10 -17 -5 -27 -3 -27 4 0 6 11 11 25 11 27 0 33 18 13 38
-14 14 -28 15 -46 3z m35 -17 c-3 -3 -12 -4 -19 -1 -8 3 -5 6 6 6 11 1 17 -2
13 -5z"/>
<path d="M10050 1893 c0 -23 5 -43 10 -43 6 0 10 13 10 30 0 19 7 33 19 39 17
9 20 6 28 -26 10 -45 28 -53 38 -16 l7 28 10 -27 c13 -37 24 -35 38 7 15 45 6
70 -10 30 l-13 -30 -6 24 c-8 31 -31 40 -31 12 0 -30 -17 -34 -24 -6 -5 20
-12 24 -41 23 -34 -1 -35 -2 -35 -45z"/>
<path d="M10240 1895 c0 -25 5 -45 10 -45 6 0 10 20 10 45 0 25 -4 45 -10 45
-5 0 -10 -20 -10 -45z"/>
<path d="M10280 1892 c0 -26 -6 -54 -12 -61 -11 -10 -9 -12 7 -9 17 3 20 12
23 61 2 35 -1 57 -8 57 -5 0 -10 -21 -10 -48z"/>
<path d="M10430 1926 c-15 -20 -9 -56 12 -70 14 -8 22 -7 35 7 17 18 17 18 -9
12 -18 -5 -28 -3 -28 4 0 6 11 11 25 11 27 0 33 18 13 38 -16 16 -33 15 -48
-2z m37 -12 c-3 -3 -12 -4 -19 -1 -8 3 -5 6 6 6 11 1 17 -2 13 -5z"/>
<path d="M10510 1894 c0 -24 5 -44 10 -44 6 0 10 14 10 30 0 18 6 33 15 36 23
9 18 22 -10 22 -23 0 -25 -4 -25 -44z"/>
<path d="M5667 1723 c1272 -2 3354 -2 4625 0 1272 1 232 2 -2312 2 -2544 0
-3584 -1 -2313 -2z"/>
</g>
</svg>
